<?xml version="1.0" encoding="UTF-8" standalone="no"?>
<!-- Created with Inkscape (http://www.inkscape.org/) -->

<svg
   xmlns:dc="http://purl.org/dc/elements/1.1/"
   xmlns:cc="http://creativecommons.org/ns#"
   xmlns:rdf="http://www.w3.org/1999/02/22-rdf-syntax-ns#"
   xmlns:svg="http://www.w3.org/2000/svg"
   xmlns="http://www.w3.org/2000/svg"
   xmlns:sodipodi="http://sodipodi.sourceforge.net/DTD/sodipodi-0.dtd"
   xmlns:inkscape="http://www.inkscape.org/namespaces/inkscape"
   id="svg4228"
   version="1.1"
   inkscape:version="0.91 r13725"
   width="150"
   height="150"
   viewBox="0 0 150 150"
   sodipodi:docname="snowflake.svg">
  <metadata
     id="metadata4234">
    <rdf:RDF>
      <cc:Work
         rdf:about="">
        <dc:format>image/svg+xml</dc:format>
        <dc:type
           rdf:resource="http://purl.org/dc/dcmitype/StillImage" />
        <dc:title></dc:title>
      </cc:Work>
    </rdf:RDF>
  </metadata>
  <defs
     id="defs4232" />
  <sodipodi:namedview
     pagecolor="#9e9e9e"
     bordercolor="#666666"
     borderopacity="1"
     objecttolerance="10"
     gridtolerance="10"
     guidetolerance="10"
     inkscape:pageopacity="0"
     inkscape:pageshadow="2"
     inkscape:window-width="1920"
     inkscape:window-height="1155"
     id="namedview4230"
     showgrid="false"
     inkscape:zoom="2.5413333"
     inkscape:cx="107.81742"
     inkscape:cy="93.061384"
     inkscape:window-x="0"
     inkscape:window-y="1"
     inkscape:window-maximized="1"
     inkscape:current-layer="svg4228" />
  <g
     id="g4238"
     style="fill:#000000"
     transform="matrix(0.29677086,0,0,0.29677086,19.348145,19.370191)">
    <path
       style="fill:#000000"
       d="m 181.875,373.50631 c -3.79274,-2.15072 -4.33508,-3.53406 -4.35586,-11.11047 -0.01,-3.83855 -0.37572,-7.33575 -0.81153,-7.77157 -0.43581,-0.43581 -2.19917,0.31419 -3.91857,1.66667 -3.59853,2.8306 -5.21569,3.00842 -9.52074,1.04691 -3.72455,-1.69702 -6.32688,-7.35872 -5.12414,-11.14825 0.47913,-1.50957 5.0302,-7.09793 10.11349,-12.41855 8.7713,-9.18081 9.24235,-9.96939 9.24235,-15.47245 0,-3.18923 -0.43696,-5.7986 -0.97103,-5.7986 -0.53406,0 -4.89343,3.99835 -9.6875,8.88524 -10.62708,10.83283 -15.28169,13.23555 -20.45638,10.55961 -3.9109,-2.0224 -5.13509,-4.19266 -5.13509,-9.10359 0,-2.44631 4.28735,-7.55358 18.125,-21.59126 l 18.125,-18.387 0,-6.84818 c 0,-3.76648 -0.38634,-7.23448 -0.85853,-7.70667 -0.47217,-0.47219 -8.81265,7.02781 -18.53436,16.66666 -18.61585,18.45719 -20.72045,19.68279 -26.65787,15.52405 -1.57138,-1.10063 -3.33577,-3.2603 -3.92088,-4.79926 -0.83716,-2.20189 -1.82307,-2.68668 -4.62703,-2.27514 -5.19108,0.76189 -10.40133,-3.6842 -10.40133,-8.87581 0,-2.21095 2.55859,-13.48652 5.68575,-25.05686 3.12716,-11.57033 5.38735,-21.33536 5.02263,-21.70008 -1.00547,-1.00546 -12.00039,5.05623 -13.22709,7.29233 -0.59109,1.07746 -3.70888,11.76496 -6.92843,23.75 -3.219555,11.98502 -6.32704,22.69818 -6.905525,23.80702 -0.578486,1.10884 -2.718765,2.70655 -4.756175,3.55046 -2.981559,1.23502 -4.387679,1.20692 -7.206191,-0.14396 -6.011623,-2.8813 -6.455828,-6.97617 -2.436447,-22.4602 1.955868,-7.53466 3.306433,-13.94907 3.001257,-14.25425 -0.305177,-0.30517 -3.056323,1.03151 -6.113659,2.97041 -5.3892,3.41774 -5.6513,3.8841 -8.59087,15.28612 C 66.688457,290.60997 63.598929,295 57.79252,295 52.446711,295 48.75,290.89195 48.75,284.9513 c 0,-2.72321 -0.140625,-4.94418 -0.3125,-4.93546 -0.171875,0.009 -3.559445,1.66256 -7.527934,3.67523 -6.08455,3.08587 -7.787426,3.46 -10.864935,2.38718 -4.495481,-1.56713 -6.067955,-3.38236 -7.009903,-8.09211 -0.918307,-4.59153 2.720483,-9.5452 9.58343,-13.04642 5.672899,-2.8941 6.133091,-4.35466 1.720968,-5.46203 -1.912641,-0.48004 -3.940791,-2.42884 -5.135845,-4.93489 -1.8065,-3.78826 -1.8015,-4.47701 0.05861,-8.07408 2.98152,-5.76561 6.810613,-6.18897 21.340489,-2.35947 l 12.477377,3.28855 5.459525,-3.1995 c 3.002739,-1.75973 4.981668,-3.62619 4.397621,-4.1477 -0.584046,-0.52153 -6.843897,-2.50646 -13.910781,-4.411 -9.734852,-2.62354 -13.445956,-4.22184 -15.3125,-6.59476 -2.83519,-3.60437 -3.013543,-5.22027 -1.051471,-9.52654 2.045181,-4.48869 7.12765,-6.25785 13.245222,-4.61056 2.728079,0.7346 7.647396,1.60755 10.931815,1.93988 3.284419,0.33234 6.690961,1.20122 7.570095,1.93083 2.31329,1.91986 8.87382,3.75822 17.465718,4.89417 6.595731,0.87204 8.221459,0.62969 13.483769,-2.01002 3.29107,-1.65088 5.69126,-3.4749 5.33375,-4.05336 -0.81555,-1.31958 -10.716828,-3.85924 -15.045846,-3.85924 -1.78545,0 -5.451455,-1.125 -8.146677,-2.5 -2.695223,-1.375 -6.540001,-2.5 -8.543952,-2.5 -6.48847,0 -11.352379,-1.49225 -14.563282,-4.46801 -3.668293,-3.39967 -3.980367,-7.4407 -1.049288,-13.58724 1.95797,-4.10591 1.95797,-4.5398 0,-6.70334 -1.15141,-1.2723 -2.093475,-3.57157 -2.093475,-5.10951 0,-6.709 3.967164,-9.17876 21.25,-13.22925 5.15625,-1.20844 10.620835,-2.97465 12.143521,-3.9249 C 96.166207,160.77749 99.035394,160 101.01949,160 c 5.01803,0 11.63838,-2.48329 10.69401,-4.01133 -0.43095,-0.69727 -3.74666,-2.57821 -7.36824,-4.17984 l -6.58469,-2.91207 -22.942785,6.16479 c -12.618533,3.39062 -23.689179,6.17011 -24.601439,6.17661 -2.565117,0.0183 -8.966346,-6.99401 -8.966346,-9.8223 0,-5.4221 5.039928,-8.83474 18.125,-12.27282 6.875,-1.80639 12.977856,-3.70229 13.561903,-4.2131 0.584046,-0.51082 -1.398179,-2.37045 -4.404944,-4.13253 l -5.466848,-3.20378 -12.571767,3.2666 c -14.513158,3.77105 -18.284687,3.36946 -21.194088,-2.2567 -2.542465,-4.91659 -0.615977,-10.35843 4.626812,-13.06958 C 35.89173,114.51747 37.5,113.43043 37.5,113.1183 c 0,-0.31212 -2.196829,-1.68823 -4.881843,-3.05802 -9.418848,-4.80514 -12.411033,-11.808214 -7.637927,-17.876235 4.010395,-5.098391 8.008632,-5.33353 16.403111,-0.964677 l 7.366659,3.833929 0,-5.026648 C 48.75,83.634996 52.11586,80 58.034275,80 c 5.938456,0 8.477521,3.704793 12.058525,17.594799 2.73686,10.615741 3.307889,11.692421 7.657459,14.438181 C 82.54613,115.06048 85,115.74445 85,114.05371 c 0,-0.52045 -1.399263,-6.00483 -3.109471,-12.1875 -3.737238,-13.510683 -3.869804,-16.938634 -0.80158,-20.72773 2.809182,-3.469194 10.368332,-3.966913 13.449673,-0.885571 1.1016,1.1016 4.957132,12.769902 8.567848,25.929561 4.42085,16.11227 7.30727,24.46945 8.83786,25.58865 4.14607,3.03168 10.56048,6.14074 11.24889,5.45233 0.37306,-0.37306 -1.88031,-10.14491 -5.00747,-21.71524 C 115.05859,103.93788 112.5,92.71952 112.5,90.578517 c 0,-5.474698 4.81854,-9.82236 10.03728,-9.056411 3.20174,0.469916 4.12377,0.05949 4.99108,-2.221712 0.58511,-1.53896 2.3495,-3.698624 3.92088,-4.799252 5.93742,-4.158737 8.04202,-2.933141 26.65787,15.524044 9.72171,9.638853 18.06219,17.138854 18.53437,16.666664 0.47218,-0.47218 0.85852,-3.94019 0.85852,-7.706681 l 0,-6.848164 L 159.375,73.75 C 145.0206,59.188098 141.25,54.658039 141.25,51.97432 c 0,-4.80147 1.83836,-7.64696 6.07386,-9.401363 4.99693,-2.069794 8.52721,-0.06486 19.51761,11.084495 4.79407,4.863402 9.15344,8.842548 9.6875,8.842548 0.53407,0 0.97103,-2.797381 0.97103,-6.216402 0,-6.052471 -0.26371,-6.496368 -10,-16.832803 -5.5,-5.839019 -10,-11.452671 -10,-12.474781 0,-3.814743 2.94345,-8.106396 6.59805,-9.62018 3.19569,-1.3237 4.3352,-1.240905 7.43915,0.540515 C 173.55316,19.053356 175.71951,20 176.3513,20 c 0.63179,0 1.1487,-3.334821 1.1487,-7.410714 0,-5.0673399 0.62054,-8.0312566 1.96241,-9.3731235 4.03554,-4.03553635 12.03964,-4.03553635 16.07518,0 C 196.87946,4.5580294 197.5,7.5219461 197.5,12.589286 197.5,16.665179 198.01691,20 198.6487,20 c 0.63179,0 2.79814,-0.946644 4.8141,-2.103651 3.10395,-1.78142 4.24346,-1.864215 7.43915,-0.540515 3.6546,1.513783 6.59805,5.805437 6.59805,9.62018 0,1.02211 -4.5,6.635762 -10,12.474781 -9.38629,9.964855 -10,10.955025 -10,16.134031 0,3.034698 0.46426,5.804563 1.0317,6.155258 0.56744,0.350695 4.92681,-3.314005 9.6875,-8.143776 10.92915,-11.087743 14.4651,-13.091037 19.45694,-11.023351 4.2355,1.754403 6.07386,4.599893 6.07386,9.401363 0,2.683719 -3.7706,7.213778 -18.125,21.77568 l -18.125,18.387005 0,6.848164 c 0,3.766491 0.38634,7.234501 0.85853,7.706681 0.47217,0.47219 8.81264,-7.027811 18.53436,-16.666664 18.61585,-18.457185 20.72045,-19.682781 26.65787,-15.524044 1.57138,1.100628 3.33577,3.260292 3.92088,4.799252 0.86731,2.2812 1.78933,2.691629 4.99109,2.221712 5.21873,-0.765949 10.03727,3.581713 10.03727,9.056412 0,2.141002 -2.55859,13.359362 -5.68575,24.929692 -3.12716,11.57033 -5.38052,21.34218 -5.00747,21.71524 0.8208,0.82079 8.74762,-3.29891 11.82426,-6.14526 1.34324,-1.2427 4.59777,-11.00529 8.28407,-24.84959 3.3394,-12.541515 7.01465,-23.967321 8.16722,-25.390679 3.0097,-3.716816 10.7112,-3.549428 13.82872,0.300559 3.08259,3.806836 2.9535,7.2824 -0.77052,20.74531 -1.7102,6.18266 -3.11645,11.66309 -3.125,12.17871 -0.0279,1.68565 2.45038,0.99038 7.23421,-2.02952 4.34957,-2.74576 4.9206,-3.82244 7.65746,-14.438181 C 308.4882,83.704793 311.02726,80 316.96572,80 c 5.91842,0 9.28428,3.634996 9.28428,10.026649 l 0,5.026649 7.36666,-3.83393 c 8.39448,-4.368853 12.39271,-4.133714 16.40312,0.964677 4.7731,6.068021 1.78091,13.071095 -7.63794,17.876235 -2.68502,1.36979 -4.88184,2.7459 -4.88184,3.05802 0,0.31213 1.60828,1.39917 3.57394,2.41565 5.24279,2.71115 7.16927,8.15299 4.62681,13.06957 -2.90941,5.62617 -6.68094,6.02775 -21.19409,2.2567 l -12.57177,-3.2666 -5.46685,3.20379 c -3.00676,1.76208 -4.98899,3.6233 -4.40494,4.13605 0.58404,0.51274 6.1244,2.22276 12.3119,3.80004 12.76704,3.2545 16.40519,5.11774 18.3569,9.40129 1.8899,4.14786 -0.67249,9.97665 -5.21254,11.85718 -3.02375,1.25248 -6.47628,0.6548 -24.65301,-4.26776 C 291.24108,152.5759 279.9117,150 277.68995,150 c -4.00896,0 -13.08666,3.85808 -14.51481,6.16888 -0.78433,1.26907 13.12628,5.85672 20.57486,6.78548 2.40625,0.30004 5.78125,1.13414 7.5,1.85355 1.71875,0.71943 6.38152,2.2041 10.36172,3.29929 3.98022,1.0952 8.33959,3.09411 9.6875,4.44203 2.94637,2.94636 3.17117,8.36601 0.5049,12.17263 -1.76117,2.51444 -1.76117,3.04184 0,5.55628 2.21014,3.15541 2.51233,7.57779 0.74365,10.8826 -1.44932,2.70807 -5.02047,4.20611 -18.17277,7.62317 -10.89058,2.82945 -28.13886,8.96445 -28.01919,9.96609 0.0411,0.34375 2.01855,2.24101 4.39439,4.21615 l 4.31971,3.59115 24.46304,-6.50435 c 26.69006,-7.09649 29.79209,-7.14704 32.8049,-0.53465 1.96208,4.30628 1.78373,5.92218 -1.05147,9.52654 -1.86654,2.37292 -5.57764,3.97122 -15.3125,6.59476 -7.06688,1.90454 -13.32674,3.88948 -13.91078,4.411 -0.58405,0.52151 1.39488,2.38798 4.39763,4.1477 l 5.45951,3.1995 12.47738,-3.28855 c 14.47841,-3.81594 18.36272,-3.3989 21.30313,2.28722 2.54246,4.91659 0.61598,10.35843 -4.62681,13.06958 -1.96566,1.01649 -3.57394,2.10352 -3.57394,2.41565 0,0.31211 2.19682,1.68822 4.88184,3.05802 11.99177,6.11774 13.41165,17.36034 2.66564,21.10643 -3.19223,1.11281 -4.80107,0.76701 -10.95704,-2.35508 -3.96849,-2.01267 -7.35606,-3.66653 -7.52794,-3.67523 -0.17188,-0.009 -0.3125,2.23416 -0.3125,4.98416 0,6.13649 -3.40252,10 -8.80681,10 -6.06704,0 -9.08432,-4.20644 -12.48844,-17.41036 -2.93958,-11.40202 -3.20167,-11.86838 -8.59088,-15.28612 -3.05732,-1.9389 -5.80847,-3.27558 -6.11365,-2.97041 -0.30517,0.30518 1.01877,6.62695 2.94209,14.04838 4.10346,15.83379 3.71085,19.5014 -2.39951,22.41523 -3.78498,1.80493 -4.47775,1.80112 -8.04623,-0.0442 -4.36016,-2.25472 -4.32673,-2.16613 -12.25565,-32.48235 l -4.86592,-18.60481 -5.59991,-2.41144 c -3.07996,-1.32628 -6.0025,-3.06281 -6.49454,-3.85895 -0.49204,-0.79613 -1.28661,-1.05553 -1.76571,-0.57643 -0.4791,0.4791 -0.14828,1.74203 0.73516,2.80651 0.88344,1.06448 1.30173,2.23994 0.92954,2.61214 -0.3722,0.37218 1.51157,8.93672 4.18616,19.03228 2.67459,10.09557 4.86771,20.14288 4.8736,22.32735 0.0139,5.1414 -5.21859,9.58679 -10.39062,8.82769 -2.80397,-0.41154 -3.78988,0.0732 -4.62704,2.27514 -0.58511,1.53896 -2.3495,3.69862 -3.92088,4.79926 -5.93742,4.15874 -8.04202,2.93314 -26.65787,-15.52405 -9.72171,-9.63885 -18.06219,-17.13885 -18.53436,-16.66666 -0.47219,0.47219 -0.85853,3.94019 -0.85853,7.70667 l 0,6.84818 18.125,18.387 c 13.83765,14.03768 18.125,19.14495 18.125,21.59126 0,4.91093 -1.22419,7.08119 -5.13509,9.10359 -5.17469,2.67594 -9.8293,0.27322 -20.45639,-10.55961 -4.79406,-4.88689 -9.15343,-8.88524 -9.6875,-8.88524 -0.53406,0 -0.97102,2.60937 -0.97102,5.7986 0,5.50306 0.47105,6.29164 9.24235,15.47245 5.08329,5.32062 9.63436,10.90897 10.11349,12.41855 1.20273,3.78952 -1.39959,9.45122 -5.12414,11.14825 -4.30505,1.96151 -5.92221,1.78369 -9.52074,-1.04691 -1.7194,-1.35248 -3.48276,-2.10248 -3.91857,-1.66667 -0.43582,0.43582 -0.801,3.93302 -0.81153,7.77157 -0.0211,7.70549 -0.57584,9.05615 -4.58619,11.16704 -3.42762,1.80414 -7.77773,1.78182 -11.01967,-0.0566 z M 191,368.5 c 0.95024,-0.95024 1.5,-5.73361 1.5,-13.05123 0,-7.00947 0.53732,-11.88331 1.3666,-12.39583 0.75162,-0.46453 3.78075,1.52471 6.73137,4.42055 5.58862,5.4848 9.62822,6.29458 10.4375,2.09234 0.28793,-1.4951 -2.82821,-5.63803 -9.04815,-12.0296 l -9.48732,-9.74914 0,-13.26854 c 0,-11.75578 0.24708,-13.26855 2.16709,-13.26855 1.1919,0 8.22727,6.0414 15.63417,13.42532 11.22303,11.18823 13.81766,13.20418 15.57101,12.0982 1.15717,-0.72992 2.33768,-2.02836 2.62337,-2.88543 0.28568,-0.85707 -7.69647,-9.84025 -17.7381,-19.96265 L 192.5,285.52107 l 0,-14.63553 c 0,-10.94762 0.39741,-14.63554 1.57715,-14.63554 0.86744,0 10.56396,9 21.54785,20 19.89699,19.92617 24.24334,22.90354 26.15652,17.91784 0.59054,-1.53892 -5.7342,-8.66522 -24.24126,-27.31348 L 192.5,241.62305 l -0.18286,-6.12402 c -1.15339,-38.62823 -0.56849,-42.123 6.21097,-37.11073 1.88298,1.39215 5.69397,3.68943 8.46887,5.10508 2.7749,1.41565 5.77628,3.45472 6.66976,4.53128 0.89346,1.07658 3.79999,2.5432 6.45894,3.25918 7.75906,2.0893 11.38938,6.10797 13.66893,15.13115 6.61227,26.17346 15.5129,58.18432 16.55025,59.52251 1.61866,2.08806 5.81922,1.99089 6.64215,-0.15365 0.3622,-0.94389 -2.46795,-13.39368 -6.28924,-27.6662 C 246.8765,243.84512 243.75,231.11739 243.75,229.8338 c 0,-2.82228 3.36735,-3.01609 6.83637,-0.39348 1.35377,1.02345 4.46198,2.39952 6.90715,3.05794 2.44518,0.65841 6.4891,3.31878 8.98652,5.91193 4.13712,4.29571 5.06561,6.71486 10.44518,27.21481 3.24744,12.375 6.46164,23.20312 7.14267,24.0625 1.67739,2.11667 5.5054,1.97746 6.35287,-0.23103 0.37854,-0.98643 -1.4558,-9.93272 -4.0763,-19.88063 -2.6205,-9.94792 -4.33633,-18.77998 -3.81297,-19.6268 0.69025,-1.11684 4.07529,0.24788 12.32591,4.96936 12.6783,7.25523 10.71846,4.17914 17.09847,26.83718 2.05716,7.30578 4.03248,9.00037 7.51936,6.45071 2.07906,-1.52025 2.09541,-2.05374 0.26072,-8.50314 -2.75178,-9.67314 -1.46059,-11.10368 6.12034,-6.78087 13.93695,7.94716 16.3551,8.87336 18.50605,7.08823 3.8811,-3.22102 1.62209,-6.47731 -8.73734,-12.59461 -5.5,-3.24779 -10,-6.6469 -10,-7.5536 0,-0.91229 3.04849,-2.5674 6.82583,-3.70593 7.8245,-2.3584 10.3938,-5.09746 7.49792,-7.99333 -1.67851,-1.67852 -3.15095,-1.5448 -13.50652,1.22653 -6.39246,1.71074 -12.84767,3.10864 -14.34493,3.10647 -3.617,-0.005 -22.7223,-11.54513 -22.7223,-13.72458 0,-1.1427 6.21145,-3.39625 18.75,-6.80262 17.80831,-4.83801 18.75,-5.25079 18.75,-8.21884 0,-2.18865 -0.761,-3.23397 -2.5398,-3.4887 -1.39687,-0.20004 -12.84634,2.40184 -25.44323,5.78194 l -22.90342,6.14565 -5.80677,-2.13374 c -3.19373,-1.17355 -9.09631,-4.60078 -13.11684,-7.61605 l -7.31005,-5.48233 3.31726,-2.85338 c 2.98366,-2.56644 4.36431,-3.03527 9.74035,-3.30752 0.85937,-0.0435 4.2552,-1.08415 7.54628,-2.3125 3.29107,-1.22836 7.32861,-2.23337 8.97229,-2.23337 3.96981,0 25.79246,-5.87353 27.25441,-7.33548 0.63193,-0.63193 0.93477,-2.1931 0.67297,-3.46925 -0.67679,-3.29896 -8.37374,-2.73393 -19.93965,1.46373 -5.05659,1.83522 -12.53783,3.85111 -16.62498,4.47977 -4.08715,0.62867 -8.74207,2.00195 -10.34427,3.05177 -1.60221,1.0498 -5.5844,2.17052 -8.84931,2.49047 -3.26492,0.31996 -7.71163,1.09093 -9.8816,1.71326 -5.51814,1.58258 -12.26734,-0.24263 -18.03433,-4.87712 -2.69354,-2.16459 -7.55502,-5.11063 -10.80332,-6.54675 C 205.21749,193.87644 200,190.0134 200,187.75732 c 0,-2.48912 5.1132,-6.22825 14.98941,-10.96129 4.65588,-2.23127 8.84089,-4.66468 9.30003,-5.40758 0.45914,-0.74291 3.53551,-2.64325 6.83639,-4.223 5.22106,-2.4987 6.47288,-2.67106 9.62538,-1.32524 1.99309,0.85086 5.09887,1.5724 6.90174,1.60341 1.80286,0.031 7.44159,1.41553 12.5305,3.07672 16.84888,5.50002 43.51101,12.26845 45.42885,11.5325 2.57956,-0.98988 2.38389,-5.4583 -0.2998,-6.84603 -1.20313,-0.62214 -5.28125,-1.80619 -9.0625,-2.63122 -7.39816,-1.61423 -17.59486,-4.41484 -25.625,-7.03814 -2.75,-0.89838 -7.97774,-2.34321 -11.6172,-3.21076 -10.36516,-2.47077 -10.45311,-3.83689 -0.655,-10.17284 15.88331,-10.27096 16.03931,-10.27873 45.09644,-2.24724 10.49082,2.8997 20.05332,5.08363 21.25,4.85316 1.37194,-0.26421 2.17576,-1.56721 2.17576,-3.5269 0,-2.94383 -0.98966,-3.37928 -18.75,-8.25001 -12.67696,-3.47661 -18.75,-5.7034 -18.75,-6.875 0,-2.32869 19.18458,-13.6009 23.125,-13.58746 1.71875,0.006 8.00613,1.3611 13.97194,3.01165 9.28641,2.56925 11.17467,2.75739 13.125,1.30769 3.52606,-2.62097 0.66156,-5.84481 -7.2195,-8.1252 -4.03836,-1.16851 -6.75244,-2.65965 -6.75244,-3.70987 0,-0.96583 4.5,-4.33899 10,-7.4959 8.04274,-4.61641 10.07539,-6.38127 10.38517,-9.017008 0.68818,-5.855206 -3.55942,-5.598748 -15.55318,0.939054 -12.44758,6.785174 -13.69399,6.316694 -10.74784,-4.039753 1.70365,-5.988751 1.71337,-7.004252 0.0827,-8.634922 -3.02606,-3.026066 -5.80481,-0.725229 -7.83598,6.488285 -1.04846,3.723494 -2.75462,9.783854 -3.79148,13.467464 -1.85118,6.57658 -2.08257,6.81173 -12.81873,13.0269 -7.49295,4.33767 -11.3936,5.94761 -12.39551,5.1161 -1.0946,-0.90844 -0.25507,-5.7797 3.3409,-19.38522 2.64159,-9.994537 4.49658,-18.970136 4.12219,-19.945777 -0.84121,-2.192153 -4.67448,-2.319857 -6.34535,-0.211393 -0.68103,0.859375 -3.9033,11.6875 -7.16061,24.0625 -3.25732,12.375 -6.50683,23.21844 -7.22113,24.09653 -1.86805,2.29631 -22.0889,14.02847 -24.1787,14.02847 -2.08203,0 -2.2671,-3.90775 -0.474,-10.00825 5.5321,-18.82139 12.47941,-46.905109 11.94674,-48.293256 -0.81739,-2.130084 -5.02505,-2.216417 -6.62808,-0.135994 -0.66217,0.859375 -3.58142,10.84375 -6.48722,22.1875 -5.8592,22.87336 -8.20604,31.3656 -11.21924,40.59762 -1.87721,5.75154 -2.59838,6.49347 -9.52584,9.79998 -4.12217,1.96752 -8.43366,4.41641 -9.5811,5.44196 -2.6509,2.36931 -16.94124,9.16044 -19.276,9.16044 -0.96951,0 -1.79796,-0.42188 -1.841,-0.9375 -0.13001,-1.55801 -0.15865,-30.5356 -0.0361,-36.51616 0.10312,-5.03239 0.75695,-6.19724 6.67682,-11.89543 3.60938,-3.47421 14.87495,-14.79908 25.03462,-25.16638 13.45012,-13.725001 18.25643,-19.411714 17.67877,-20.917084 -1.89442,-4.936777 -6.24737,-1.94354 -26.31071,18.092158 C 203.7198,110.63874 194.69688,118.71025 193.88881,118.21083 193.00407,117.664 192.5,112.26908 192.5,103.34636 l 0,-14.006094 16.95687,-16.857634 c 9.32629,-9.271697 17.52158,-17.877963 18.21175,-19.125034 1.4523,-2.624167 -0.5534,-5.857598 -3.63348,-5.857598 -1.04982,0 -7.90237,5.90625 -15.2279,13.125 -7.32554,7.21875 -13.99148,13.125 -14.8132,13.125 -1.06489,0 -1.49404,-3.811296 -1.49404,-13.268546 l 0,-13.268547 9.48732,-9.749128 c 6.21994,-6.391584 9.33608,-10.53451 9.04815,-12.029599 -0.81471,-4.230408 -4.85411,-3.387334 -10.54891,2.201685 -3.51224,3.446995 -5.90811,4.942587 -6.6805,4.170202 -0.66235,-0.66236 -1.36781,-6.483242 -1.56767,-12.935295 -0.29608,-9.5578954 -0.76862,-11.9859005 -2.55089,-13.1069951 -1.59186,-1.0013197 -2.78314,-1.0013197 -4.375,0 -1.78228,1.1210946 -2.25481,3.5490997 -2.55089,13.1069951 -0.19986,6.452053 -0.90532,12.272935 -1.56767,12.935295 -0.77239,0.772385 -3.16827,-0.723207 -6.6805,-4.170202 -5.6948,-5.589019 -9.7342,-6.432093 -10.54892,-2.201685 -0.28792,1.495089 2.82822,5.638015 9.04815,12.029599 l 9.48733,9.749128 0,13.268547 c 0,9.45725 -0.42915,13.268546 -1.49404,13.268546 -0.82172,0 -7.48766,-5.90625 -14.8132,-13.125 -7.32554,-7.21875 -14.17809,-13.125 -15.2279,-13.125 -3.08009,0 -5.08579,3.233431 -3.63349,5.857598 0.69018,1.247071 8.88547,9.853337 18.21175,19.125034 L 182.5,89.340266 l 0,14.704864 c 0,11.00342 -0.397,14.70487 -1.57715,14.70487 -0.86744,0 -10.56396,-9 -21.54785,-20 -19.91535,-19.944577 -24.24276,-22.905047 -26.1637,-17.899154 -0.60031,1.564405 5.58957,8.524372 24.24126,27.257064 l 25.04744,25.15623 0.14205,6.80542 c 0.71295,34.15744 -0.0549,39.91147 -4.86395,36.44908 -1.18421,-0.85259 -4.68435,-2.70595 -7.7781,-4.11859 -3.09375,-1.41264 -6.75,-3.56208 -8.125,-4.77654 -3.68913,-3.25839 -13.90009,-8.87351 -16.13628,-8.87351 -1.1023,0 -2.26536,-1.48541 -2.69151,-3.4375 -0.41274,-1.89063 -1.21147,-4.84375 -1.77499,-6.5625 -0.56352,-1.71875 -4.26746,-15.5 -8.231,-30.625 -3.96352,-15.125 -7.74437,-28.203125 -8.40187,-29.0625 -1.59046,-2.078771 -5.8019,-1.99487 -6.61799,0.131844 -0.3576,0.93189 2.80266,14.495536 7.02279,30.141436 4.22014,15.64591 7.20225,28.90614 6.62691,29.46721 -0.95784,0.93406 -5.37812,-1.52857 -21.4101,-11.92799 l -5.78109,-3.75 -6.302433,-23.12529 c -3.46634,-12.718911 -6.75751,-23.828286 -7.313708,-24.687501 -1.370398,-2.116985 -5.435983,-1.979878 -6.276964,0.211684 -0.374387,0.975641 1.480592,9.95124 4.12218,19.945777 3.548416,13.42555 4.425879,18.47526 3.359471,19.33338 -0.957336,0.77036 -5.129167,-0.94413 -12.388271,-5.09119 -10.780096,-6.15857 -10.973342,-6.35389 -12.837294,-12.97507 -1.040842,-3.6973 -2.750266,-9.76887 -3.798721,-13.492364 -2.031168,-7.213514 -4.80992,-9.514351 -7.835986,-6.488285 -1.63067,1.63067 -1.620943,2.646171 0.08271,8.634922 2.969075,10.437027 1.630648,10.964167 -10.454136,4.117372 C 33.010274,92.808007 28.2877,92.486166 28.983684,98.42806 c 0.317996,2.71486 2.265105,4.41639 10.391321,9.08071 5.5,3.15691 10,6.53007 10,7.4959 0,1.03694 -2.671491,2.54726 -6.523758,3.68819 -7.434853,2.20198 -9.760401,4.03642 -8.681451,6.84811 C 35.183244,128.182 40.05862,128.02171 50.625,125 c 4.808124,-1.375 10.150084,-2.49781 11.871022,-2.49513 3.957176,0.006 23.128978,11.28179 23.128978,13.60299 0,1.1716 -6.073034,3.39839 -18.75,6.875 -16.658369,4.56851 -18.79464,5.4565 -19.150171,7.96023 -0.248072,1.74696 0.391878,3.12202 1.683687,3.61773 1.146121,0.43982 12.013699,-1.81848 24.15017,-5.01843 12.136473,-3.19997 23.753814,-5.81144 25.816314,-5.8033 2.0625,0.009 5.71875,1.11092 8.125,2.45065 2.40625,1.33971 6.75815,3.61185 9.67089,5.0492 5.6927,2.80916 8.87265,6.96752 6.86412,8.97605 -0.65813,0.65812 -5.35086,2.04809 -10.4283,3.0888 -5.07744,1.04071 -9.76608,2.4106 -10.41921,3.0442 -0.65312,0.63361 -2.47533,1.15201 -4.049345,1.15201 -2.904911,0 -28.205,6.77574 -30.426404,8.14864 -1.320202,0.81593 -1.648336,4.74811 -0.49266,5.90378 0.3955,0.3955 2.504875,0.20149 4.6875,-0.43113 2.182625,-0.63263 7.423281,-1.7073 11.645905,-2.38818 4.222623,-0.68087 11.93488,-2.66786 17.138354,-4.41554 8.54703,-2.87066 16.15126,-4.81602 31.69494,-8.10842 6.13177,-1.29881 12.67151,1.0881 24.11421,8.80131 3.78125,2.54884 9.26562,6.12843 12.1875,7.95463 2.92187,1.82621 5.3125,3.81664 5.3125,4.42316 0,1.7405 -8.6414,8.8723 -12.95811,10.69441 -7.14062,3.0141 -10.09739,4.47902 -17.66689,8.75294 -7.77423,4.38951 -11.08733,4.61486 -16.21564,1.1029 -1.35608,-0.92867 -4.16859,-1.69549 -6.24999,-1.70403 -4.26444,-0.0175 -25.138104,-5.54362 -27.347134,-7.23992 C 92.20738,197.18627 78.31255,193.75 73.355495,193.75 c -3.691584,0 -4.605495,0.47136 -4.605495,2.37532 0,1.8119 1.45835,2.72518 6.148191,3.85025 3.381505,0.81122 7.17838,2.25568 8.4375,3.20993 1.25912,0.95425 4.421093,1.75287 7.026607,1.77475 2.605513,0.0219 6.96309,1.17526 9.683502,2.56311 2.72041,1.38785 7.61988,2.84066 10.8877,3.22846 7.65208,0.90809 12.45082,2.74224 13.35769,5.1055 0.75884,1.9775 -5.8994,9.14268 -8.49583,9.14268 -0.79214,0 -4.08188,1.40625 -7.31055,3.125 -7.09643,3.77772 -10.232156,3.86709 -21.931611,0.625 -4.961854,-1.375 -10.698851,-2.5 -12.748884,-2.5 -2.050032,0 -5.978027,-1.17313 -8.728879,-2.60695 -2.750851,-1.43383 -7.690047,-2.69945 -10.975992,-2.8125 -5.59422,-0.19246 -5.974444,-0.007 -5.974444,2.91945 0,2.96805 0.941691,3.38082 18.75,8.21884 12.538549,3.40637 18.75,5.65992 18.75,6.80262 0,2.17945 -19.105301,13.71933 -22.722296,13.72458 -1.497263,0.002 -7.952484,-1.39573 -14.344935,-3.10647 -10.355575,-2.77133 -11.828013,-2.90504 -13.506515,-1.22653 -2.89588,2.89587 -0.326585,5.63493 7.497927,7.99333 3.777327,1.13853 6.825819,2.79364 6.825819,3.70593 0,0.9067 -4.5,4.30581 -10,7.5536 -10.359431,6.1173 -12.618437,9.37359 -8.73734,12.59461 2.150956,1.78513 4.569099,0.85893 18.506056,-7.08823 7.580919,-4.32281 8.872104,-2.89227 6.120335,6.78087 -1.834695,6.4494 -1.818337,6.98289 0.260719,8.50314 3.486884,2.54966 5.46221,0.85507 7.51936,-6.45071 6.380009,-22.65804 4.420173,-19.58195 17.098465,-26.83718 8.398355,-4.80601 11.628561,-6.0977 12.345988,-4.93688 0.538356,0.87108 -1.181435,9.71843 -3.856609,19.84004 -4.287881,16.22334 -4.618789,18.47734 -2.956661,20.13946 3.916298,3.9163 5.920968,0.0126 12.236895,-23.82909 3.352132,-12.65382 6.948232,-23.96958 7.991332,-25.14614 2.37138,-2.67483 21.31853,-13.48579 23.63501,-13.48579 2.75384,0 2.10039,3.86284 -5.23382,30.93976 -3.8199,14.10255 -6.65005,26.41034 -6.28923,27.35063 0.82088,2.13919 5.02513,2.23242 6.63357,0.14711 1.65513,-2.14586 15.40057,-54.52487 15.37308,-58.58142 -0.0299,-4.40475 3.7437,-8.90972 10.91034,-13.02504 3.26837,-1.87681 7.34876,-4.69695 9.06751,-6.26696 4.63687,-4.23561 14.88885,-9.31408 18.80244,-9.31408 1.97467,0 3.75202,0.83895 4.18882,1.97724 0.96278,2.50896 0.81515,18.07895 -0.29836,31.46876 l -0.85832,10.321 -24.72242,24.74561 c -18.54917,18.56659 -24.51918,25.2752 -23.90855,26.8665 1.92925,5.02756 6.23645,2.08509 26.17139,-17.87911 10.98389,-11 20.68041,-20 21.54785,-20 1.18015,0 1.57715,3.70145 1.57715,14.70486 l 0,14.70488 -16.95687,16.85762 c -9.32629,9.2717 -17.52158,17.87798 -18.21176,19.12504 -1.38662,2.50549 0.51029,5.8576 3.31472,5.8576 0.87448,0 7.5755,-5.90625 14.89111,-13.125 7.31562,-7.21875 14.12501,-13.125 15.13198,-13.125 1.49278,0 1.83082,2.44989 1.83082,13.26855 l 0,13.26854 -9.48732,9.74913 c -6.21994,6.39158 -9.33608,10.5345 -9.04815,12.0296 0.80928,4.20225 4.84888,3.39247 10.4375,-2.09233 2.95062,-2.89584 5.97975,-4.88508 6.73137,-4.42055 0.82928,0.51252 1.3666,5.38636 1.3666,12.39583 0,11.73737 0.96689,14.55123 5,14.55123 1.1,0 2.675,-0.675 3.5,-1.5 z M 177.5,222.81677 c 0,-8.34307 -0.4694,-15.45933 -1.04312,-15.81391 -0.57372,-0.35459 -4.0052,1.58098 -7.62552,4.30123 -3.62031,2.72025 -7.39759,4.94591 -8.39395,4.94591 -4.45675,0 -9.25327,4.0502 -12.23208,10.3288 -2.59659,5.473 -15.72552,51.82344 -15.69603,55.41337 0.005,0.62305 10.13013,-9.02345 22.5,-21.43667 L 177.5,237.986 l 0,-15.16923 z m 58.78637,34.49386 c -3.51121,-13.30209 -7.31275,-26.34272 -8.44785,-28.97914 -2.48027,-5.76079 -10.47516,-12.90657 -16.21266,-14.49077 -2.28937,-0.63212 -5.88939,-2.6024 -8.00002,-4.37838 -2.11064,-1.77598 -4.3203,-2.93068 -4.91037,-2.566 -0.59006,0.36467 -0.90977,7.7295 -0.71047,16.36627 l 0.36236,15.70323 21.69506,21.72167 c 11.93229,11.94691 21.90048,21.51625 22.15153,21.2652 0.25105,-0.25105 -2.41635,-11.33999 -5.92758,-24.64209 z M 145.7646,198.61809 c 9.22191,-4.15761 19.11506,-9.98149 19.18976,-11.29658 0.0251,-0.44191 -5.92936,-4.33979 -13.23215,-8.66193 l -13.27779,-7.85847 -7.65971,2.16769 c -4.21284,1.19222 -11.57835,3.02925 -16.3678,4.08226 -4.78944,1.05303 -10.24588,2.70981 -12.12542,3.68177 C 100.41195,181.70477 97.50456,182.5 95.830619,182.5 91.835529,182.5 80,186.34412 80,187.6417 c 0,0.55657 2.390625,1.64142 5.3125,2.4108 2.921875,0.76936 10.20391,2.7598 16.1823,4.42318 5.97839,1.66337 11.88464,3.04771 13.125,3.07631 1.24036,0.0286 5.0677,1.10468 8.5052,2.39132 8.86509,3.31817 12.85872,3.08439 22.6396,-1.32522 z m 102.81764,2.09365 c 3.18601,-0.98354 8.32401,-2.33814 11.41776,-3.01022 13.11086,-2.84816 36.25,-9.34236 36.25,-10.17387 0,-1.70461 -56.70515,-16.25611 -60,-15.39701 -3.72946,0.97242 -14.61146,7.1952 -18.125,10.36463 -1.375,1.24033 -3.625,2.45964 -5,2.70955 -1.375,0.24993 -2.5,1.28275 -2.5,2.29518 0,1.01242 1.125,2.04525 2.5,2.29517 1.375,0.24992 3.625,1.484 5,2.7424 3.54221,3.24183 18.18254,9.96027 21.70724,9.96144 1.62647,5.4e-4 5.56397,-0.80372 8.75,-1.78727 z m -71.96428,-48.52424 0.73583,-15.3125 -22.05583,-22.1419 c -12.1307,-12.17805 -22.2544,-21.943334 -22.49708,-21.700636 -0.83788,0.837872 13.76074,53.684426 15.87604,57.470826 2.145,3.83955 14.01875,11.8584 17.69184,11.94805 1.09658,0.0268 3.01188,1.17366 4.25624,2.54866 4.44444,4.91105 5.22108,3.25066 5.99296,-12.8125 z m 29.6077,12.20952 c 1.12613,-1.01912 5.67041,-3.691 10.09843,-5.9375 6.45422,-3.27446 8.52097,-5.07615 10.42107,-9.08452 2.46928,-5.20909 16.259,-55.537507 15.44109,-56.355418 -0.25695,-0.256945 -10.35131,9.505408 -22.43194,21.694128 L 197.78956,136.875 198.10951,150 c 0.17598,7.21875 0.39208,13.82812 0.48023,14.6875 0.2208,2.15267 5.14318,1.96542 7.63592,-0.29048 z"
       id="path4242"
       inkscape:connector-curvature="0" />
    <path
       style="fill:#000000"
       d="m 181.81819,371.93181 c -2.63259,-2.63257 -3.06819,-4.22978 -3.06819,-11.25 0,-4.5 -0.53035,-8.18181 -1.17855,-8.18181 -0.6482,0 -3.10784,1.13831 -5.46585,2.52958 -4.9409,2.91519 -9.7242,1.92011 -12.09885,-2.51697 -2.18945,-4.09101 -0.39087,-7.43259 9.51696,-17.68156 9.21606,-9.53337 9.22629,-9.55165 9.22629,-16.48874 0,-3.81962 -0.62181,-7.32907 -1.38181,-7.79877 -0.78663,-0.48616 -6.0468,3.78936 -12.21223,9.92622 -9.04241,9.00053 -11.48531,10.78024 -14.79731,10.78024 -4.29835,0 -7.85865,-3.62691 -7.85865,-8.00568 0,-1.47493 7.2109,-9.7613 18.125,-20.82823 l 18.125,-18.37883 0,-8.81986 c 0,-4.85092 -0.592,-9.18574 -1.31556,-9.63291 -0.72355,-0.44719 -9.64188,7.39461 -19.8185,17.42622 -10.96128,10.80508 -19.46853,18.22309 -20.87194,18.19954 -3.29963,-0.0554 -6.41312,-2.67723 -7.93608,-6.68291 -1.15554,-3.0393 -1.73617,-3.31028 -5.557,-2.59349 -5.09374,0.95559 -9.50092,-2.54479 -9.50092,-7.54605 0,-1.7117 2.53125,-12.4356 5.625,-23.83087 5.57481,-20.5338 6.49855,-25.56785 4.6875,-25.5452 -1.59176,0.0199 -13.48257,7.1537 -14.88924,8.93266 -0.73089,0.92434 -3.41301,9.27436 -5.96026,18.55561 -7.772375,28.31965 -8.562523,30.46118 -11.831221,32.06609 -3.815648,1.87345 -7.734118,0.46526 -10.056698,-3.61409 -1.628035,-2.85945 -1.42845,-4.5553 2.089995,-17.75832 4.443424,-16.67403 4.069437,-17.60494 -5.029535,-12.51943 -5.490753,3.06884 -5.987831,3.79024 -8.427732,12.23096 C 64.699016,291.09779 63.1688,293.75 57.931265,293.75 53.355517,293.75 50,289.51925 50,283.75 c 0,-5.91227 -0.986736,-6.12439 -8.3678,-1.7988 -6.887681,4.03645 -12.299916,3.71559 -15.755738,-0.93409 -3.702572,-4.98167 -1.250762,-9.9043 7.397489,-14.85233 C 36.973278,264.04824 40,261.84164 40,261.26121 c 0,-0.58042 -2.109375,-2.08602 -4.6875,-3.34576 -3.994989,-1.95207 -4.744151,-2.97184 -5.070966,-6.90264 -0.320459,-3.85435 0.172797,-4.97666 3.001969,-6.8304 3.285565,-2.15279 3.767991,-2.118 16.353294,1.17935 l 12.967858,3.39759 6.129211,-3.1059 c 5.979011,-3.0298 8.420559,-5.20569 7.205101,-6.42115 -0.330753,-0.33075 -6.433955,-2.20167 -13.56267,-4.1576 -7.128713,-1.95592 -13.869482,-3.92884 -14.979485,-4.38424 -3.161367,-1.297 -4.991655,-6.42305 -3.600173,-10.08292 2.485145,-6.53643 7.422761,-6.26459 34.993361,1.92654 18.523306,5.5032 19.160763,5.52385 27.59161,0.89346 4.0583,-2.2289 7.3854,-4.73388 7.39356,-5.56662 0.0147,-1.50306 -10.89853,-5.36092 -15.165156,-5.36092 -1.224428,0 -5.200458,-1.0899 -8.835623,-2.42199 -3.635165,-1.3321 -10.090139,-3.08592 -14.344387,-3.89738 -9.673744,-1.84519 -13.440909,-4.98861 -12.373658,-10.32486 0.41984,-2.0992 1.66024,-4.80778 2.756446,-6.01908 1.832608,-2.025 1.781084,-2.5001 -0.639846,-5.89998 C 59.60534,176.1739 62.822656,172.44979 78.75,168.17467 85.28125,166.4216 92.59375,164.4579 95,163.8109 c 16.05876,-4.3179 20,-5.70778 20,-7.05301 0,-2.35673 -15.566361,-9.69509 -18.964989,-8.94055 -1.600506,0.35532 -12.371641,3.21275 -23.935856,6.34982 -22.802855,6.18584 -26.066459,6.21179 -28.342516,0.2253 -1.391482,-3.65987 0.438806,-8.78592 3.600173,-10.08292 1.110003,-0.4554 7.850772,-2.42832 14.979485,-4.38424 7.128715,-1.95592 13.231917,-3.82685 13.56267,-4.1576 1.139738,-1.13974 -0.939256,-3.07649 -6.848266,-6.37969 L 63.125,126.07546 49.838015,129.53011 c -12.846944,3.34024 -13.397814,3.38204 -16.633466,1.26195 -2.788281,-1.82695 -3.282519,-2.96201 -2.963015,-6.80488 0.322766,-3.8821 1.124931,-5.00791 5.067588,-7.11218 2.576268,-1.375 4.685643,-2.85322 4.6875,-3.28492 0.0019,-0.43171 -3.064985,-2.64455 -6.815207,-4.91742 -8.657916,-5.24725 -10.928854,-9.813949 -7.304952,-14.68977 3.476351,-4.677297 9.034731,-5.005038 15.968536,-0.941556 C 44.856346,94.8061 47.923135,96.25 48.660087,96.25 49.397039,96.25 50,94 50,91.25 c 0,-8.892102 7.959543,-13.18131 13.337944,-7.1875 1.388051,1.546875 3.794908,7.655704 5.348572,13.575174 1.553665,5.919476 3.187914,11.319756 3.631664,12.000636 1.578966,2.42273 11.692709,8.02905 13.342341,7.39603 1.335549,-0.5125 0.93075,-3.39995 -1.983952,-14.15161 -4.45675,-16.439916 -4.475762,-17.197174 -0.530758,-21.142177 3.292933,-3.292933 6.864864,-3.239445 10.447388,0.156442 0.945008,0.895778 4.612331,12.226034 8.149601,25.178345 l 6.43141,23.54966 6.85039,4.64936 c 3.76772,2.55716 7.55353,4.66654 8.4129,4.6875 2.49674,0.061 1.90545,-3.67305 -4.0625,-25.65493 -3.09375,-11.39527 -5.625,-22.088535 -5.625,-23.762805 0,-4.916779 4.43471,-8.428402 9.45464,-7.486658 3.92661,0.736638 4.34773,0.486879 6.05048,-3.588372 2.38559,-5.709509 6.67884,-6.90158 12.26875,-3.406563 2.25563,1.410292 11.094,9.593159 19.64087,18.18415 8.54685,8.590988 15.99997,15.335538 16.5625,14.987878 0.56251,-0.34766 1.02276,-4.63482 1.02276,-9.527035 l 0,-8.894932 -18.125,-18.270759 C 149.50957,61.337021 142.5,53.311042 142.5,51.788671 c 0,-4.409182 3.54821,-8.038671 7.85865,-8.038671 3.312,0 5.7549,1.779716 14.79731,10.780236 6.16543,6.136863 11.4256,10.412389 12.21223,9.926229 0.76,-0.469704 1.38181,-3.979156 1.38181,-7.798783 0,-6.937076 -0.01,-6.955353 -9.22629,-16.488728 -9.90784,-10.248981 -11.70641,-13.590549 -9.51696,-17.681573 2.37465,-4.437075 7.15795,-5.432155 12.09885,-2.516951 2.35801,1.391264 4.81765,2.52957 5.46585,2.52957 0.6482,0 1.17855,-3.580393 1.17855,-7.956426 C 178.75,4.9673508 181.73856,0 187.5,0 c 5.76144,0 8.75,4.9673508 8.75,14.543574 0,4.376033 0.53035,7.956426 1.17855,7.956426 0.6482,0 3.10784,-1.138306 5.46585,-2.52957 4.9409,-2.915204 9.7242,-1.920124 12.09885,2.516951 2.18945,4.091024 0.39087,7.432591 -9.51696,17.681573 -9.21606,9.533375 -9.22629,9.551652 -9.22629,16.488728 0,3.819627 0.62181,7.329079 1.38181,7.798783 0.78663,0.48616 6.0468,-3.789366 12.21223,-9.926229 C 218.88645,45.529716 221.32935,43.75 224.64135,43.75 c 4.31044,0 7.85865,3.629489 7.85865,8.038671 0,1.522371 -7.00958,9.54835 -18.125,20.753163 l -18.125,18.270759 0,8.894932 c 0,4.892215 0.45649,9.177055 1.01441,9.521875 0.55793,0.34481 8.2923,-6.56473 17.1875,-15.354548 8.8952,-8.789816 17.71586,-16.97575 19.60148,-18.190963 4.9017,-3.15897 9.3983,-1.70316 11.69149,3.785206 1.70275,4.075251 2.12387,4.32501 6.05048,3.588372 3.3045,-0.619926 4.78832,-0.223795 6.8375,1.825394 3.54843,3.548425 3.33127,6.586054 -1.78342,24.945809 C 250.14498,133.89511 250,134.47727 250,137.33252 c 0,3.72872 2.08251,3.29897 9.97338,-2.05816 l 6.84836,-4.64936 4.70802,-16.875 c 2.5894,-9.28125 5.31849,-19.540409 6.06463,-22.79813 1.72907,-7.549376 4.72533,-11.26437 9.08506,-11.26437 4.16404,0 8.32094,3.531972 8.31944,7.068735 -6e-4,1.44032 -1.63415,8.703995 -3.63012,16.141495 -4.17508,15.55756 -3.61537,16.81403 5.07742,11.39819 2.98585,-1.86026 5.61778,-3.54246 5.84876,-3.73823 0.23097,-0.19576 2.00967,-5.78679 3.95265,-12.424501 C 310.01065,85.277684 312.52581,81.25 316.7906,81.25 c 5.23431,0 8.2094,3.423189 8.2094,9.44588 0,3.11788 0.58774,5.55412 1.33991,5.55412 0.73695,0 3.80374,-1.4439 6.81509,-3.208666 6.9338,-4.063482 12.49219,-3.735741 15.96854,0.941556 3.6239,4.875821 1.35296,9.44252 -7.30495,14.68977 -3.75023,2.27287 -6.81706,4.48571 -6.81522,4.91742 10e-4,0.43171 2.11124,1.90992 4.6875,3.28492 3.94267,2.10427 4.74483,3.23008 5.06759,7.11219 0.31952,3.84286 -0.17472,4.97792 -2.96301,6.80487 -3.23565,2.12009 -3.78652,2.07829 -16.63346,-1.26195 l -13.28699,-3.45465 -5.9257,3.31255 c -5.8885,3.29174 -7.98789,5.24006 -6.86082,6.36714 0.32384,0.32385 5.86455,1.98313 12.31267,3.68729 6.44811,1.70416 13.19776,3.6898 14.9992,4.41251 4.28105,1.71749 6.4238,6.37973 4.84301,10.53751 -2.1762,5.72383 -5.77213,5.89068 -23.33437,1.08277 -8.8187,-2.41424 -20.05964,-5.25078 -24.97988,-6.30341 l -8.94588,-1.91388 -5.63555,3.30265 c -7.62698,4.46971 -9.1657,6.42625 -6.24089,7.9355 3.83239,1.97759 14.78347,5.30229 21.18634,6.43207 3.34502,0.59023 10.30062,2.27434 15.45687,3.74245 13.22449,3.76535 16.65795,8.54538 11.15928,15.53581 l -2.59073,3.29358 2.59072,3.29357 c 6.09563,7.74933 2.2837,11.83872 -15.53427,16.66498 -27.01663,7.31782 -33.125,9.20327 -33.125,10.22455 0,0.56955 2.20271,2.42605 4.89492,4.12557 2.69222,1.69952 5.25667,3.67532 5.69878,4.39068 1.29655,2.09787 4.06427,1.62604 28.67746,-4.88894 25.29349,-6.69502 28.41681,-6.76649 30.7222,-0.70287 1.39148,3.65987 -0.43881,8.78592 -3.60017,10.08292 -1.11,0.4554 -7.85078,2.42831 -14.97949,4.38424 -7.12871,1.95592 -13.23191,3.82685 -13.56266,4.1576 -1.21546,1.21546 1.22609,3.39135 7.2051,6.42115 l 6.12921,3.1059 12.96785,-3.39759 c 12.58531,-3.29735 13.06774,-3.33214 16.3533,-1.17935 2.82918,1.85374 3.32243,2.97605 3.00196,6.8304 -0.32681,3.9308 -1.07597,4.95056 -5.07096,6.90264 -2.57813,1.25974 -4.6875,2.76534 -4.6875,3.34576 0,0.58043 3.02672,2.78703 6.72605,4.90356 8.64825,4.94804 11.10006,9.87067 7.39749,14.85234 -3.45583,4.64968 -8.86805,4.97054 -15.75574,0.93409 C 325.98674,277.62561 325,277.83773 325,283.75 c 0,5.76925 -3.35551,10 -7.93126,10 -5.23754,0 -6.76775,-2.65221 -12.02655,-20.84479 -2.4399,-8.44072 -2.93698,-9.16212 -8.42773,-12.23096 -3.2092,-1.79366 -6.51081,-3.00182 -7.33692,-2.68483 -1.09421,0.4199 -0.45545,4.54114 2.35276,15.17969 3.48916,13.21823 3.68357,14.90401 2.04974,17.77378 -3.86515,6.78897 -11.76495,5.58542 -14.48269,-2.20648 -0.83667,-2.39877 -3.57014,-11.95516 -6.07438,-21.23641 -6.9999,-25.94324 -6.42826,-24.66501 -12.27638,-27.45059 -2.87188,-1.36793 -6.19048,-3.19165 -7.37469,-4.05269 -3.2026,-2.32863 -5.05294,0.10525 -3.57858,4.70719 3.76192,11.74213 11.35668,40.90593 11.35668,43.6095 0,5.06864 -4.3794,8.58124 -9.50091,7.62044 -3.82084,-0.71679 -4.40147,-0.44581 -5.55702,2.59349 -1.52295,4.00568 -4.63645,6.62753 -7.93607,6.68291 -1.40341,0.0235 -9.91066,-7.39446 -20.87194,-18.19954 -10.17662,-10.03161 -19.09495,-17.87341 -19.8185,-17.42622 -0.72356,0.44717 -1.31556,4.78199 -1.31556,9.63291 l 0,8.81986 18.125,18.37883 c 10.9141,11.06693 18.125,19.3533 18.125,20.82823 0,4.37877 -3.5603,8.00568 -7.85865,8.00568 -3.312,0 -5.7549,-1.77971 -14.79731,-10.78024 -6.16543,-6.13686 -11.4256,-10.41239 -12.21223,-9.92622 -0.76,0.4697 -1.38181,3.97915 -1.38181,7.79877 0,6.93709 0.01,6.95537 9.22629,16.48874 9.90783,10.24898 11.70641,13.59055 9.51696,17.68156 -2.37465,4.43708 -7.15795,5.43216 -12.09885,2.51697 -2.35801,-1.39127 -4.81765,-2.52958 -5.46585,-2.52958 -0.6482,0 -1.17855,3.68181 -1.17855,8.18181 0,7.02022 -0.4356,8.61743 -3.06819,11.25 -3.89326,3.89328 -7.47036,3.89328 -11.36362,0 z m 10.63783,-3.09964 c 0.71169,-1.3298 1.29398,-7.23604 1.29398,-13.125 0,-6.75396 0.49251,-10.70717 1.33394,-10.70717 0.73367,0 3.2292,2.00956 5.54562,4.46569 3.23768,3.43293 5.02502,4.37245 7.72856,4.0625 2.88478,-0.33073 3.58163,-1.07719 3.87714,-4.15319 0.30849,-3.21098 -0.99416,-5.09308 -9.0625,-13.09371 l -9.42276,-9.34372 0,-11.52002 c 0,-6.336 0.46122,-11.80506 1.02494,-12.15345 0.56371,-0.3484 6.88178,5.2434 14.04016,12.42622 13.98203,14.02978 17.50864,15.75892 20.18054,9.89474 1.37581,-3.01959 0.59959,-4.01416 -16.9018,-21.6563 L 193.75,285.43741 l 0,-13.34371 c 0,-9.61776 0.42299,-13.3437 1.51485,-13.3437 0.83316,0 10.65712,9.08175 21.83102,20.18166 19.78532,19.6543 20.39083,20.13219 23.17265,18.28815 1.57107,-1.04143 3.0493,-2.86757 3.28498,-4.05809 0.28601,-1.44477 -7.92344,-10.5528 -24.6875,-27.38966 l -25.116,-25.22509 0,-20.89848 c 0,-11.49417 0.33047,-20.89849 0.7344,-20.89849 1.38859,0 16.74391,8.95363 17.52626,10.2195 0.4306,0.69672 4.23248,2.81455 8.44863,4.70627 9.06802,4.06869 10.10836,5.18154 11.75481,12.57423 1.14265,5.13057 10.21711,38.80469 14.72906,54.65755 2.2628,7.95038 5.28699,10.09888 9.45938,6.72029 l 2.88467,-2.33588 -4.06791,-16.08347 c -2.23736,-8.84593 -5.52109,-21.31127 -7.29716,-27.70076 -1.77609,-6.38952 -2.96043,-11.8861 -2.63188,-12.21465 0.9121,-0.91212 17.62666,7.9903 21.1689,11.27483 2.45734,2.27858 4.26457,7.26777 8.45889,23.35238 6.78881,26.03405 7.83454,28.57971 11.74011,28.57971 6.43038,0 6.58931,-2.37075 1.47097,-21.94069 -2.60607,-9.96425 -4.4053,-18.4498 -3.99833,-18.85677 0.84516,-0.84517 15.4239,7.05531 19.2509,10.43238 1.55479,1.37201 3.65269,6.52554 5.41363,13.2987 3.31878,12.7652 5.7036,16.54062 9.65582,15.28623 3.52797,-1.11974 4.48553,-4.57002 2.87643,-10.36442 -2.66412,-9.59354 -1.91519,-9.80139 9.93982,-2.75845 8.81351,5.23601 13.10236,5.87409 15.35151,2.284 2.65851,-4.24356 0.005,-7.92063 -9.69887,-13.44192 C 331.73901,263.49128 327.5,260.6216 327.5,260.062 c 0,-0.5596 3.23437,-2.0681 7.1875,-3.35223 6.15891,-2.00065 7.24294,-2.81467 7.57491,-5.68819 0.6939,-6.00629 -2.9521,-6.56168 -17.66756,-2.69128 l -12.93523,3.40218 -9.79971,-5.55374 c -5.38985,-3.05455 -9.99804,-6.16429 -10.24041,-6.91053 -0.25916,-0.79791 6.13879,-3.05088 15.5324,-5.4696 18.98548,-4.88846 21.90001,-6.3981 21.36107,-11.06438 -0.58791,-5.09039 -4.45197,-4.86325 -29.23114,1.71824 -19.69437,5.23096 -22.56943,5.70728 -26.79939,4.43995 -6.70039,-2.00748 -20.4693,-11.40556 -18.94429,-12.93057 1.27339,-1.27339 14.37458,-5.17162 23.96185,-7.12981 3.09375,-0.6319 11.13266,-2.67684 17.86424,-4.54433 13.19421,-3.66035 15.9024,-5.83532 13.30621,-10.68635 -2.13315,-3.98582 -8.29418,-2.89735 -46.79545,8.26732 -23.64172,6.85567 -26.57019,6.9864 -35,1.56233 -3.4375,-2.21182 -10.46875,-6.30963 -15.625,-9.10626 -5.15625,-2.79662 -9.375,-5.86566 -9.375,-6.8201 0,-1.44211 14.3298,-10.20587 26.875,-16.43611 1.71875,-0.85356 4.04789,-2.31846 5.17586,-3.25533 1.73304,-1.4394 2.99221,-1.42772 8.125,0.0753 3.34078,0.97828 9.73039,2.69589 14.19914,3.81694 4.46875,1.12104 15.4375,4.04111 24.375,6.48905 22.36777,6.12645 26.24444,6.56935 28.04545,3.20413 2.12764,-3.97553 -0.31266,-7.3296 -6.50421,-8.93972 -2.91018,-0.7568 -6.97874,-1.87537 -9.04124,-2.48572 -12.1327,-3.59039 -25.97069,-7.36758 -32.5,-8.87113 -4.125,-0.94988 -7.43661,-2.28957 -7.35914,-2.97707 0.1624,-1.44108 8.60811,-6.81944 16.58054,-10.55875 6.15876,-2.88865 9.64041,-3.17715 14.75973,-1.22306 7.60602,2.90328 37.26406,10.00942 40.30079,9.65616 2.44522,-0.28444 3.31126,-1.18113 3.60605,-3.73358 0.53971,-4.67291 -2.40032,-6.2082 -21.34038,-11.14403 -8.84213,-2.30429 -15.76128,-4.73435 -15.52358,-5.452 0.64588,-1.95 17.35893,-11.72294 20.22599,-11.82712 1.375,-0.05 7.70242,1.33518 14.06096,3.07808 12.7592,3.49742 16.56404,2.93771 16.56404,-2.43656 0,-3.68801 -1.63636,-4.94339 -9.0625,-6.95257 -3.26563,-0.88352 -5.9375,-2.0721 -5.9375,-2.64127 0,-0.56917 2.67187,-2.55688 5.9375,-4.41713 C 346.84685,102.83451 350.30277,98.302778 346,94 c -2.52347,-2.52347 -6.00374,-1.713955 -15.04722,3.5 -4.76982,2.75 -9.25579,5 -9.96883,5 -0.80611,0 -0.97049,-1.53649 -0.4346,-4.0625 2.48299,-11.704085 2.45898,-12.00949 -1.071,-13.617852 -4.88464,-2.225593 -7.29137,1.045016 -10.71079,14.555352 -1.65288,6.53063 -3.83454,12.12679 -5.20062,13.34008 -3.58835,3.18701 -18.66068,11.35785 -19.4659,10.55263 -0.39062,-0.39062 1.42202,-8.86277 4.02808,-18.82702 C 293.23036,84.93617 293.079,82.5 286.76593,82.5 c -3.93,0 -4.70498,1.758078 -10.57192,23.98302 -7.72678,29.27039 -6.02363,26.26495 -18.96516,33.4666 -6.25306,3.47968 -11.63679,6.0591 -11.96382,5.73207 -0.61275,-0.61275 -0.33474,-1.75173 8.40416,-34.43169 2.84957,-10.65625 4.88209,-20.57858 4.51671,-22.049624 -0.81975,-3.300419 -3.8588,-4.597187 -6.92635,-2.95549 -2.65397,1.420369 -3.25482,3.127363 -9.46155,26.880114 -2.51506,9.625 -5.8747,21.71875 -7.46587,26.875 -1.59118,5.15625 -3.21874,10.88674 -3.6168,12.73442 -0.55479,2.5751 -2.53394,4.27928 -8.47716,7.2994 -4.26436,2.167 -9.11957,5.01464 -10.78935,6.32809 -1.66978,1.31345 -3.53378,2.38809 -4.14223,2.38809 -0.60845,0 -3.33392,1.40625 -6.05659,3.125 -2.72268,1.71875 -5.524,3.125 -6.22516,3.125 -0.81452,0 -1.27484,-7.38563 -1.27484,-20.45395 l 0,-20.45395 5.9375,-5.57106 c 17.83614,-16.73539 44.22482,-44.874149 43.85124,-46.759411 -0.22755,-1.148361 -1.69915,-2.940009 -3.27022,-3.98144 -2.78182,-1.844034 -3.38733,-1.366158 -23.17265,18.28815 C 205.92197,107.16825 196.09801,116.25 195.26485,116.25 c -1.09186,0 -1.51485,-3.72593 -1.51485,-13.3437 l 0,-13.343708 18.34384,-18.491358 c 17.50139,-17.64213 18.27761,-18.636712 16.9018,-21.656297 -2.6719,-5.864173 -6.19851,-4.135038 -20.18054,9.894738 -7.15837,7.182821 -13.47645,12.774624 -14.04016,12.426229 C 194.21122,71.387509 193.75,65.918451 193.75,59.582444 l 0,-11.520013 9.42276,-9.343716 c 8.06834,-8.000645 9.37099,-9.882741 9.0625,-13.093715 -0.55281,-5.754225 -5.66615,-5.786088 -11.98797,-0.0747 C 197.53837,27.997634 194.9683,30 194.536,30 194.1037,30 193.75,25.18177 193.75,19.292824 193.75,6.6557724 192.58155,3.75 187.5,3.75 c -5.08155,0 -6.25,2.9057724 -6.25,15.542824 C 181.25,25.18177 180.8963,30 180.464,30 c -0.4323,0 -3.00238,-2.002366 -5.71129,-4.449701 -6.32182,-5.711387 -11.43516,-5.679524 -11.98797,0.0747 -0.30849,3.210973 0.99416,5.09307 9.0625,13.093715 l 9.42276,9.343717 0,11.520013 c 0,6.336007 -0.46122,11.805065 -1.02494,12.15346 -0.56371,0.348395 -6.88179,-5.243408 -14.04016,-12.426229 -13.98203,-14.029776 -17.50864,-15.758911 -20.18054,-9.894738 -1.37581,3.019585 -0.59959,4.014167 16.9018,21.656297 l 18.34384,18.491359 0,13.343707 c 0,9.61777 -0.42299,13.3437 -1.51485,13.3437 -0.83316,0 -10.65713,-9.08175 -21.83103,-20.181661 -19.78531,-19.654308 -20.39082,-20.132184 -23.17265,-18.28815 -1.57106,1.041431 -3.0493,2.86757 -3.28497,4.058087 -0.28601,1.44478 7.92344,10.552793 24.6875,27.389664 l 25.116,25.22508 0,20.19972 c 0,11.10985 -0.47855,20.49547 -1.06344,20.85696 -0.5849,0.36149 -2.94417,-0.73033 -5.24285,-2.42623 C 172.64504,171.38756 170.22867,170 169.57404,170 c -0.65465,0 -4.061,-1.90495 -7.56965,-4.23321 -3.50867,-2.32828 -8.81933,-5.50453 -11.80147,-7.05833 -2.98215,-1.55381 -5.60941,-3.44574 -5.83837,-4.20429 -0.22896,-0.75855 -3.8653,-14.31667 -8.08075,-30.12917 -4.21546,-15.8125 -8.24263,-30.582444 -8.94924,-32.822096 -2.14701,-6.804966 -9.02479,-8.339509 -10.52831,-2.349033 -0.36968,1.472965 2.11835,13.082799 5.52897,25.799629 6.7089,25.01477 8.16693,31.2465 7.31064,31.2465 -0.30402,0 -5.65828,-2.84109 -11.89834,-6.31353 C 104.87587,132.77371 106.3736,135.35452 99.399661,108.32031 93.550116,85.644767 92.203336,82.5 88.341839,82.5 c -6.424639,0 -6.61706,2.454422 -1.645798,20.99291 2.526769,9.42265 4.585088,17.8954 4.574042,18.82833 -0.02536,2.14273 -1.70555,1.49479 -12.5553,-4.84181 -8.570709,-5.00556 -8.642723,-5.09293 -11.157502,-13.53709 -1.392114,-4.674459 -2.882815,-10.25751 -3.31267,-12.406782 -1.004024,-5.020123 -4.528541,-8.260646 -7.841091,-7.209283 -3.388466,1.075458 -4.320241,4.595771 -2.7311,10.318294 1.618334,5.827641 1.666705,7.855431 0.187385,7.855431 -0.627108,0 -5.042769,-2.25 -9.812579,-5 C 35.003741,92.286045 31.52347,91.47653 29,94 c -4.302778,4.302778 -0.846848,8.83451 12.5625,16.47311 3.265625,1.86025 5.9375,3.79182 5.9375,4.29238 0,0.50056 -3.234375,2.02373 -7.1875,3.38481 -6.114678,2.10532 -7.245326,2.97524 -7.574915,5.82813 -0.682995,5.91192 3.042824,6.58337 16.326457,2.94227 6.358527,-1.7429 12.685958,-3.12804 14.060958,-3.07808 2.867064,0.10418 19.580111,9.87712 20.225988,11.82712 0.237698,0.71765 -6.681449,3.14771 -15.523574,5.452 -18.940068,4.93583 -21.880088,6.47112 -21.340389,11.14403 0.578255,5.00674 4.455358,4.85859 26.2619,-1.00353 26.488285,-7.12069 28.007285,-7.25678 34.126075,-3.05744 2.75,1.88734 7.39063,4.49592 10.3125,5.79685 2.92188,1.30094 5.3125,3.05486 5.3125,3.89761 0,0.84275 -3.18221,2.27211 -7.07158,3.17635 -3.88936,0.90425 -9.65499,2.39597 -12.8125,3.31494 -6.434193,1.87264 -21.708728,6.02137 -29.858989,8.11005 -6.508134,1.66785 -9.501021,6.29102 -6.205807,9.58624 1.825986,1.82599 2.821567,1.82317 11.784182,-0.0332 8.99626,-1.86342 14.962211,-3.4272 41.664694,-10.92113 18.48481,-5.18767 16.60361,-5.40387 32.7761,3.76679 7.97839,4.52416 15.82077,9.14323 17.42752,10.26456 2.79378,1.94974 2.82637,2.14454 0.74625,4.45975 -1.19631,1.33153 -4.85256,3.73512 -8.125,5.34133 -3.27242,1.6062 -10.10072,5.4149 -15.17398,8.46377 -8.87729,5.33496 -9.4178,5.49031 -14.375,4.13155 -2.83299,-0.77652 -10.49464,-2.75404 -17.02589,-4.39449 -6.53125,-1.64043 -13.5625,-3.63881 -15.625,-4.44082 -6.642702,-2.58304 -21.185829,-6.109 -26.746654,-6.4847 -6.170305,-0.41688 -9.304956,2.32237 -6.94285,6.0671 1.320964,2.09416 14.662481,6.89846 23.64631,8.51506 2.726244,0.49059 6.382494,1.62024 8.125,2.51035 1.742504,0.8901 7.120354,2.27772 11.950764,3.08355 15.52232,2.58957 15.56824,4.48254 0.30381,12.52386 l -10.56399,5.56513 -9.261195,-2.26926 c -5.093658,-1.24809 -12.840452,-3.03321 -17.2151,-3.96693 -4.374648,-0.93371 -8.650637,-2.2759 -9.502198,-2.98264 -0.851561,-0.70672 -5.147303,-1.42591 -9.546095,-1.59819 -7.840595,-0.30707 -8.005428,-0.2472 -8.385777,3.046 -0.538934,4.66628 2.375594,6.17592 21.36107,11.06438 9.393621,2.41872 15.791571,4.67169 15.532406,5.4696 -0.242377,0.74624 -4.850562,3.85598 -10.24041,6.91053 l -9.799722,5.55374 -12.935219,-3.40218 c -14.715469,-3.8704 -18.36146,-3.31501 -17.667565,2.69128 0.331972,2.87352 1.416004,3.68754 7.574915,5.68819 3.953125,1.28413 7.1875,2.7818 7.1875,3.32818 0,0.54637 -4.230866,3.43323 -9.401925,6.41522 -9.667446,5.57494 -12.330865,9.25549 -9.716984,13.42781 2.249146,3.5901 6.537996,2.95201 15.35151,-2.284 11.855006,-7.04294 12.603941,-6.83509 9.939819,2.75845 -1.597133,5.75131 -0.655036,9.24358 2.788435,10.3365 4.063609,1.28973 6.635436,-2.6758 9.771587,-15.06693 1.65288,-6.53064 3.834535,-12.12679 5.200617,-13.34007 3.58835,-3.18702 18.660681,-11.35785 19.465902,-10.55263 0.390613,0.39061 -1.422027,8.86276 -4.028091,18.82701 -5.118346,19.56994 -4.959404,21.94069 1.470969,21.94069 3.864929,0 5.204821,-3.13473 11.027867,-25.80003 6.926124,-26.95887 5.519254,-24.52347 18.342524,-31.75221 6.20872,-3.49997 11.60732,-6.04487 11.99688,-5.65532 0.38955,0.38956 -2.54035,12.79982 -6.5109,27.57836 -3.97055,14.77855 -6.90873,27.6791 -6.5293,28.66787 1.19199,3.10629 5.2163,4.56148 7.66434,2.77143 2.06136,-1.50731 15.71837,-48.50066 17.70431,-60.91998 0.848,-5.30311 3.17969,-7.74507 13.62094,-14.26512 16.62505,-10.38154 19.36016,-11.89266 22.05355,-12.18444 l 2.91295,-0.31556 0.34546,19.92789 0.34546,19.92787 -25.14896,25.25819 c -16.7868,16.85971 -25.00649,25.97792 -24.72046,27.42277 0.23567,1.19052 1.71391,3.01665 3.28497,4.05809 2.78183,1.84404 3.38734,1.36615 23.17265,-18.28815 11.1739,-11.09991 20.99787,-20.18166 21.83103,-20.18166 1.09186,0 1.51485,3.72594 1.51485,13.3437 l 0,13.34371 -18.34384,18.49135 c -17.50139,17.64214 -18.27761,18.63672 -16.9018,21.6563 2.67436,5.86959 6.19693,4.13663 20.24564,-9.96006 7.19419,-7.21875 13.51226,-13.125 14.04016,-13.125 0.52791,0 0.95984,5.49845 0.95984,12.21879 l 0,12.21878 -9.42276,9.34372 c -8.06834,8.00063 -9.37099,9.88273 -9.0625,13.09371 0.55281,5.75422 5.66615,5.78609 11.98797,0.0747 C 177.46162,347.00236 180.0317,345 180.464,345 c 0.4323,0 0.786,4.81822 0.786,10.70717 0,12.63706 1.16845,15.54283 6.25,15.54283 2.34124,0 4.12875,-0.87205 4.95602,-2.41783 z M 155.98183,262.11072 178.75,239.22145 l 0,-17.11073 c 0,-19.23752 -0.157,-19.49829 -8.4643,-14.05917 -2.56339,1.67835 -8.31695,4.91272 -12.7857,7.1875 -6.19854,3.1553 -8.65368,5.21722 -10.35471,8.69634 -1.22635,2.50821 -5.3264,16.28946 -9.11123,30.625 -3.78482,14.33553 -7.17874,27.04898 -7.54202,28.25211 -1.6423,5.43901 4.23687,0.66417 25.48978,-20.70178 z M 244.514,282.8125 c -0.35995,-1.20313 -3.53186,-13.15625 -7.04868,-26.5625 -8.79819,-33.53906 -8.96243,-33.92408 -16.65058,-39.0323 -8.92563,-5.93043 -21.98373,-12.41531 -23.32747,-11.58484 -0.61422,0.37961 -1.07265,8.12689 -1.01871,17.21618 l 0.098,16.52596 22.60986,22.8125 c 21.10313,21.29225 26.96468,26.06362 25.33753,20.625 z M 146.561,200.44238 C 159.20821,194.08301 167.5,188.627 167.5,186.66449 167.5,185.74901 167.04495,185 166.48877,185 c -0.55616,0 -6.60303,-3.37154 -13.4375,-7.4923 -6.83445,-4.12076 -13.74045,-7.49576 -15.34667,-7.5 -1.60621,-0.004 -6.94996,1.08716 -11.875,2.42532 -4.92503,1.33817 -12.3296,3.25478 -16.4546,4.25915 -20.572399,5.00902 -33.125,9.141 -33.125,10.90388 0,2.11035 2.516646,2.89395 31.29623,9.74451 7.93167,1.88803 15.24417,3.94218 16.25,4.56478 1.00582,0.62261 4.07877,1.50321 6.82877,1.95688 2.75,0.45368 5.4212,0.89527 5.936,0.98132 0.51479,0.086 5.01479,-1.89448 10,-4.40117 z m 103.7768,1.33317 C 252.92984,200.799 256.41899,200 258.09147,200 c 1.67249,0 4.33299,-0.49309 5.91222,-1.09574 1.57922,-0.60266 5.68381,-1.75784 9.12131,-2.56707 11.93615,-2.80995 26.875,-7.74485 26.875,-8.87792 0,-0.62668 -2.95313,-1.96683 -6.5625,-2.9781 -3.60937,-1.01124 -12.75,-3.55682 -20.3125,-5.65682 -7.5625,-2.09999 -17.8894,-5.00821 -22.94865,-6.46271 -11.3912,-3.27489 -15.05974,-2.7312 -25.28106,3.74675 -4.41117,2.79566 -10.16647,6.25141 -12.78958,7.67943 -7.17067,3.90377 -6.97838,4.10448 15.39429,16.06903 10.06477,5.38247 12.99134,5.62835 22.8378,1.9187 z M 177.50889,161.5625 c 0.005,-4.64063 0.36955,-12.25659 0.81036,-16.92438 l 0.80149,-8.48686 -22.95354,-23.07563 C 135.80051,92.600614 128.4864,86.519532 130.29196,91.5625 c 0.30768,0.859375 3.52241,13.09375 7.14384,27.1875 3.62142,14.09375 7.48234,27.7999 8.57981,30.45811 2.0356,4.9305 6.27733,8.2797 17.84386,14.08924 3.19157,1.60302 6.51019,3.76691 7.37474,4.80862 0.86454,1.04172 2.62803,1.89403 3.91884,1.89403 2.06326,0 2.34803,-1.0199 2.35584,-8.4375 z m 27.62917,5.5861 c 2.33031,-1.56826 7.33069,-4.44634 11.11194,-6.39571 3.78125,-1.94938 7.61521,-4.1409 8.51992,-4.87006 3.34388,-2.69504 5.73998,-9.55373 12.30599,-35.22507 3.69733,-14.45552 7.03069,-27.267135 7.40748,-28.47026 1.71456,-5.474711 -4.23498,-0.641384 -25.39174,20.6279 l -22.69469,22.8154 -0.0539,15.25836 c -0.073,20.66207 0.54777,21.80972 8.79501,16.25944 z"
       id="path4240"
       inkscape:connector-curvature="0" />
  </g>
  <path
     style="fill:#ffffff;fill-opacity:1;stroke:none"
     d="m 73.968453,127.93085 c -0.106522,-0.501 -0.250836,-2.18518 -0.320697,-3.74262 -0.06987,-1.55744 -0.251306,-2.95599 -0.403202,-3.10789 -0.151897,-0.1519 -1.105333,0.36981 -2.11875,1.15936 -1.013417,0.78955 -2.079125,1.43554 -2.368241,1.43554 -1.12271,0 -0.415294,-1.2943 2.228794,-4.07784 l 2.75446,-2.89973 0,-3.36518 c 0,-3.5087 -0.208206,-4.61003 -0.871519,-4.61003 -0.216607,0 -2.231781,1.70198 -4.478173,3.78218 -2.675019,2.47712 -4.289704,3.70337 -4.679497,3.5538 -0.327336,-0.12561 -0.595155,-0.45775 -0.595155,-0.73807 0,-0.28033 2.390477,-2.89524 5.312172,-5.81092 l 5.312172,-5.30124 -0.006,-3.94041 c -0.0031,-2.167228 -0.164819,-4.191275 -0.358895,-4.49789 -0.431742,-0.682087 -2.581397,1.048575 -7.308219,5.88376 -3.068855,3.1392 -5.877544,5.49481 -6.551698,5.49481 -1.181124,0 0.510311,-2.10818 6.820618,-8.501132 l 7.155073,-7.248781 0.365627,-5.107595 c 0.389815,-5.445452 0.199214,-7.662226 -0.688076,-8.002712 -0.844328,-0.324 -3.010089,0.398582 -4.810085,1.604823 -7.291837,4.886525 -7.079615,4.656807 -7.978072,8.635892 -0.907221,4.017894 -3.400388,13.425205 -3.920702,14.793735 -0.258246,0.67924 -0.698896,1.07131 -1.204041,1.07131 -0.4382,0 -0.796727,-0.095 -0.796727,-0.21113 0,-0.11612 0.885362,-3.73963 1.967471,-8.052248 2.092045,-8.337596 2.263008,-9.443862 1.459461,-9.443862 -0.279406,0 -2.005862,0.851703 -3.836569,1.892676 l -3.328559,1.892672 -1.245555,3.911368 c -0.685056,2.151249 -1.706272,5.452181 -2.26937,7.335404 -1.039851,3.47768 -1.544712,4.26553 -2.269142,3.54111 -0.275434,-0.27544 -0.01502,-2.00887 0.821275,-5.466744 1.406512,-5.815596 1.461241,-6.417084 0.583881,-6.417084 -0.775246,0 -4.721221,2.171675 -5.946261,3.272538 -0.525716,0.472426 -1.295619,2.155058 -1.90814,4.17026 -1.148987,3.7802 -1.523728,4.41868 -2.39678,4.08366 -0.608587,-0.23354 -0.597697,-0.68832 0.09462,-3.95169 0.368762,-1.738237 -0.422336,-1.706293 -3.981728,0.16077 -2.776154,1.45623 -4.108718,1.56907 -4.108718,0.34793 0,-0.32896 1.270849,-1.44122 2.824108,-2.471689 1.55326,-1.030471 2.894812,-2.091182 2.981227,-2.357137 0.09092,-0.279806 -0.76743,-0.892433 -2.03712,-1.453949 -1.30659,-0.577839 -2.194238,-1.217932 -2.194238,-1.582292 0,-0.837159 1.354715,-0.785099 5.214425,0.200372 l 3.181329,0.812262 2.406224,-1.221335 c 1.323423,-0.671734 2.931559,-1.652822 3.573634,-2.180194 1.485291,-1.21995 1.319997,-1.333552 -4.317291,-2.967108 -5.048346,-1.462894 -5.729885,-1.766128 -5.729885,-2.549378 0,-0.800387 1.700259,-0.737865 4.547152,0.167203 1.286449,0.408982 4.143861,1.126952 6.349806,1.595489 l 4.010809,0.851884 2.678593,-1.056686 c 2.798818,-1.104109 3.861679,-1.823263 4.524178,-3.061157 0.595807,-1.113273 -0.267504,-1.71395 -3.419562,-2.379258 -1.514952,-0.319762 -3.412794,-0.857668 -4.217424,-1.195345 -0.804631,-0.337674 -1.844341,-0.613954 -2.310467,-0.613954 -1.086664,0 -6.260671,-2.011849 -6.260671,-2.434383 0,-0.767405 3.873579,-0.227727 7.606941,1.059817 2.200626,0.758941 5.240646,1.628461 6.755598,1.93227 1.514953,0.303805 3.323419,0.781644 4.018814,1.061863 1.194148,0.481205 1.500043,0.395557 5.508919,-1.542399 4.794855,-2.317913 7.589267,-4.132681 7.589267,-4.928672 0,-0.553344 -5.273018,-4.247271 -8.179672,-5.730134 -0.894483,-0.456331 -2.356441,-0.829695 -3.248797,-0.829695 -1.584758,0 -6.277312,1.040482 -9.82022,2.17744 -0.973898,0.312537 -3.688709,0.989709 -6.032913,1.504832 -3.657572,0.803724 -4.293676,0.854536 -4.484149,0.358167 -0.122078,-0.318129 0.02518,-0.734949 0.327247,-0.926266 0.664847,-0.42109 4.023182,-1.424705 7.238608,-2.163199 4.592541,-1.054781 8.661092,-2.192247 8.991083,-2.513681 0.183814,-0.179048 0.221291,-0.681315 0.08328,-1.116146 -0.288657,-0.909476 -5.956141,-4.010549 -7.329636,-4.010549 -0.48926,0 -3.966287,0.736818 -7.726727,1.637377 -5.190593,1.243052 -6.947196,1.527344 -7.294057,1.180483 -0.756069,-0.756072 0.07076,-1.194605 5.028266,-2.666899 5.732714,-1.70252 6.298308,-1.975802 5.666001,-2.737684 -0.750396,-0.904172 -4.895905,-3.296823 -6.12768,-3.536695 -0.620337,-0.120802 -2.600889,0.134891 -4.401226,0.568208 -1.800337,0.433317 -3.526793,0.69059 -3.836569,0.571718 -1.135211,-0.435622 -0.511819,-1.276567 1.502616,-2.027006 1.136214,-0.423275 2.119787,-1.038222 2.185718,-1.36655 0.07601,-0.378534 -0.895834,-1.222838 -2.656062,-2.30749 -2.633806,-1.62295 -3.502533,-2.624017 -2.992824,-3.448743 0.312141,-0.505055 1.903423,0.0051 4.852588,1.555566 3.057787,1.607621 3.544364,1.345365 2.852757,-1.537581 -0.491144,-2.047315 -0.341609,-2.804956 0.553611,-2.804956 0.590132,0 1.019664,0.982351 2.166226,4.954207 0.442964,1.534493 1.123132,3.077541 1.511485,3.428995 1.419771,1.284876 6.09432,3.472117 6.517071,3.049366 0.279799,-0.279799 0.01519,-2.043221 -0.848519,-5.654698 -1.477951,-6.179859 -1.477283,-6.171364 -0.484789,-6.171364 0.830889,0 1.067366,0.650593 3.580042,9.849375 l 1.239352,4.537203 2.812433,1.816928 c 3.514565,2.270533 5.274236,3.159972 5.502242,2.781147 0.09722,-0.161522 -0.777449,-4.181061 -1.943705,-8.932309 -2.000988,-8.151887 -2.177357,-9.831574 -0.952866,-9.074797 0.662939,0.409718 1.014098,1.486694 3.594503,11.024027 1.288203,4.761281 2.425991,8.931442 2.528416,9.267022 0.102426,0.335583 0.764063,0.819097 1.470305,1.074479 0.706242,0.255382 2.436035,1.22032 3.843985,2.144311 3.081296,2.022155 5.787757,3.286775 6.185686,2.890322 0.160109,-0.159515 0.347668,-3.116632 0.416793,-6.571374 L 73.795442,59.107885 66.488487,51.6204 c -4.018826,-4.118117 -7.306957,-7.740384 -7.306957,-8.049482 0,-1.319461 1.516055,-0.22654 7.479901,5.392245 3.475947,3.274833 6.446521,5.828049 6.601271,5.673813 0.154753,-0.154236 0.342053,-2.135799 0.416226,-4.403474 l 0.134859,-4.123045 -5.348657,-5.467834 c -5.088047,-5.201417 -5.880891,-6.308686 -4.935579,-6.892921 0.483409,-0.298763 1.481546,0.473702 6.086439,4.710343 2.680487,2.466126 3.471343,3.004917 3.754301,2.557713 0.19716,-0.311603 0.361188,-2.134663 0.364502,-4.051246 l 0.006,-3.484696 -2.75446,-2.949449 c -1.514952,-1.622196 -2.754459,-3.197118 -2.754459,-3.499826 0,-0.897237 1.161516,-0.631531 2.754459,0.630104 1.265356,1.00218 2.280886,1.462182 2.388931,1.082109 0.01539,-0.0541 0.164265,-1.654981 0.33085,-3.5575 0.166582,-1.902521 0.500639,-3.656886 0.742343,-3.898591 0.727012,-0.727009 1.652869,0.388096 1.656721,1.995353 0.007,2.916469 0.492548,5.559112 1.021432,5.559112 0.28696,0 1.126763,-0.531217 1.866237,-1.180483 0.73947,-0.649265 1.630994,-1.180483 1.981165,-1.180483 1.239534,0 0.605489,1.289294 -1.921047,3.906333 l -2.557712,2.64933 0,4.198559 c 0,2.341631 0.162694,4.198559 0.367858,4.198559 0.202319,0 2.271685,-1.774469 4.59859,-3.943264 2.326904,-2.168795 4.419042,-3.881382 4.649193,-3.805747 0.230155,0.07563 0.467912,0.477792 0.528353,0.893684 0.07584,0.521826 -1.47898,2.339712 -5.017052,5.865914 l -5.126942,5.109748 0,4.432488 c 0,3.568846 0.108986,4.432487 0.559344,4.432487 0.307641,0 3.23721,-2.56755 6.510153,-5.705666 5.661694,-5.428464 6.736814,-6.212171 7.291303,-5.314989 0.132796,0.214873 -3.02889,3.727544 -7.025973,7.805935 -8.339339,8.508977 -7.856888,7.525027 -7.651488,15.605035 0.10088,3.968492 0.220754,4.736498 0.755261,4.838901 1.451994,0.278173 10.546669,-4.77473 11.256686,-6.254091 0.264385,-0.550861 1.547904,-4.938975 2.852266,-9.751357 2.505897,-9.245382 2.931906,-10.421735 3.678195,-10.156802 0.768514,0.272822 0.375835,2.835725 -1.501357,9.798923 -0.974386,3.614355 -1.771609,6.845925 -1.771609,7.181269 0,0.358379 0.342961,0.609715 0.831992,0.609715 1.272859,0 7.076581,-3.602297 7.472483,-4.638077 0.18918,-0.494935 1.164897,-3.815042 2.168257,-7.378016 1.52703,-5.422531 1.9445,-6.478136 2.56193,-6.478136 0.9764,0 0.94746,0.77773 -0.20234,5.43761 -1.2828,5.198912 -1.45557,6.299398 -1.03025,6.562266 0.46609,0.288057 4.63559,-1.80726 6.17666,-3.10398 0.8666,-0.729194 1.36254,-1.692545 1.88613,-3.663756 0.39071,-1.470935 0.95499,-3.161376 1.25396,-3.756536 1.08363,-2.157226 2.05825,-0.870954 1.42775,1.884316 -0.62035,2.710958 -0.21707,2.864068 3.23092,1.226629 3.46353,-1.644824 4.52156,-1.799959 4.52156,-0.662977 0,0.52574 -0.91218,1.381442 -2.83138,2.656086 -1.55727,1.034258 -2.89227,2.078418 -2.96668,2.320357 -0.0744,0.24194 0.84558,0.837991 2.0444,1.324559 2.05995,0.836069 2.68997,1.611926 1.77044,2.180228 -0.22508,0.13911 -2.08148,-0.15021 -4.12532,-0.642933 -3.6136,-0.871154 -3.75695,-0.876608 -5.19805,-0.197735 -2.53659,1.19494 -5.22016,3.052696 -5.22016,3.613766 0,0.334198 1.29859,0.922794 3.44307,1.560597 7.65676,2.277246 8.1541,2.514275 7.22496,3.443413 -0.3225,0.322508 -2.25312,-0.01806 -7.29264,-1.286462 -6.1498,-1.547845 -7.01197,-1.677773 -8.39125,-1.264529 -2.057298,0.616381 -6.395477,3.453636 -6.395477,4.182769 0,0.642312 2.996565,1.610288 14.362537,4.639509 1.55389,0.414137 1.99455,0.712988 2.0963,1.421667 0.12053,0.839504 0.0318,0.879247 -1.37723,0.616995 -0.82833,-0.154167 -3.36532,-0.784293 -5.63775,-1.400277 -2.27242,-0.615983 -6.311572,-1.681471 -8.975874,-2.367753 l -4.844194,-1.247786 -1.648461,0.864696 c -4.021598,2.109507 -8.695275,5.03433 -9.088824,5.687849 -0.51473,0.854752 0.442862,1.769461 3.445082,3.2908 1.053057,0.533625 2.625035,1.484827 3.493284,2.113784 0.868253,0.628961 2.173261,1.255113 2.900021,1.391455 1.517554,0.284693 5.479344,-0.333219 8.972058,-1.399356 6.468668,-1.974535 11.615578,-3.255893 12.191078,-3.035057 0.3513,0.134812 0.63873,0.503708 0.63873,0.819779 0,0.625573 -2.2113,1.366593 -7.82473,2.6221 -5.595772,1.251563 -7.659433,1.906357 -8.426912,2.673836 -0.710068,0.710069 -0.688528,0.761589 0.816949,1.953947 1.878939,1.488148 5.242583,3.217984 6.257323,3.217984 0.40834,0 3.48138,-0.706231 6.829,-1.569404 6.85096,-1.766502 8.37722,-1.935449 8.17885,-0.905352 -0.0949,0.492926 -1.5433,1.098801 -5.40882,2.262592 -2.90355,0.874167 -5.34657,1.794578 -5.42895,2.045355 -0.18258,0.555827 1.74779,2.045978 4.48059,3.458779 l 2.03102,1.049992 3.4106,-0.810015 c 4.03833,-0.959103 4.92244,-1.002746 4.92244,-0.242999 0,0.676688 -0.46744,1.006621 -2.55749,1.805151 -0.86581,0.330795 -1.5742,0.844628 -1.5742,1.141854 0,0.297221 1.2395,1.359742 2.75446,2.361158 1.85197,1.224192 2.75446,2.073112 2.75446,2.590952 0,1.24078 -1.17953,1.12681 -3.86163,-0.3731 -3.67597,-2.055725 -3.96368,-1.968487 -3.63485,1.1021 0.22431,2.09454 0.16529,2.54528 -0.35962,2.74671 -0.73536,0.28217 -0.95436,-0.1477 -2.47539,-4.85895 l -1.07985,-3.344697 -2.94763,-1.67235 c -1.6212,-0.919793 -3.25469,-1.672351 -3.62998,-1.672351 -0.78624,0 -0.75954,0.239327 0.72424,6.492655 1.08795,4.585103 1.15831,5.705663 0.3583,5.705663 -0.8227,0 -1.12497,-0.73606 -2.74007,-6.672427 -1.80671,-6.640668 -2.547779,-8.316792 -4.211535,-9.525555 -2.113667,-1.535631 -5.408228,-2.896216 -5.877262,-2.427183 -0.276839,0.276839 0.222037,2.900871 1.581764,8.319909 1.09238,4.353541 1.986143,8.187616 1.986143,8.520156 0,0.339 -0.34018,0.60462 -0.774342,0.60462 -0.877047,0 -1.551126,-1.96669 -4.315793,-12.591815 -2.05971,-7.915845 -2.370799,-8.49275 -5.332481,-9.888947 -1.301269,-0.613445 -3.490427,-1.82669 -4.864796,-2.6961 -1.374366,-0.86941 -2.726022,-1.580745 -3.003684,-1.580745 -0.796566,0 -0.978998,1.372409 -0.98475,7.408241 l -0.0054,5.637513 7.519632,7.875122 c 5.290345,5.540441 7.396145,7.998601 7.103102,8.291651 -0.63338,0.63338 -1.891913,-0.35381 -7.944208,-6.23138 -2.986901,-2.900648 -5.622934,-5.273907 -5.857882,-5.273907 -0.282352,0 -0.427169,1.526939 -0.427169,4.503983 l 0,4.503984 5.14557,5.34131 c 4.763004,4.94419 5.517506,6.03393 4.428935,6.39679 -0.225728,0.0752 -2.21649,-1.55161 -4.423918,-3.61523 -2.207428,-2.06362 -4.269349,-3.75203 -4.582047,-3.75203 -0.458334,0 -0.56854,0.7732 -0.56854,3.98883 l 0,3.98883 2.557712,2.8578 c 3.526968,3.94076 3.430947,5.58581 -0.159448,2.73176 -0.953381,-0.75786 -1.838743,-1.27403 -1.967471,-1.14705 -0.128724,0.12697 -0.411119,1.85546 -0.627541,3.84107 -0.358056,3.28508 -0.471976,3.62138 -1.264946,3.73414 -0.644209,0.0916 -0.921961,-0.11362 -1.06513,-0.78699 z"
     id="path4135"
     inkscape:connector-curvature="0" />
  <path
     style="fill:#ffffff;fill-opacity:1;stroke:none"
     d="m 73.993381,126.92157 c -0.134146,-0.81159 -0.248562,-2.27243 -0.25426,-3.24633 -0.01645,-2.81428 -0.420988,-3.10597 -2.419781,-1.74476 -2.695971,1.83599 -2.693948,1.8351 -2.693948,1.1871 0,-0.32822 1.150971,-1.87469 2.557712,-3.4366 l 2.557713,-2.83983 0,-3.87495 c 0,-4.96038 -0.300508,-5.12101 -3.788484,-2.02506 -3.546209,3.14764 -5.700393,4.86421 -6.104249,4.86421 -1.007645,0 0.164935,-1.49702 4.777308,-6.09916 l 5.115425,-5.10407 0,-4.40926 c 0,-2.636825 -0.165012,-4.51125 -0.410501,-4.66297 -0.552812,-0.341659 -2.025673,0.853265 -7.972532,6.46808 -4.755268,4.48976 -5.782759,5.26849 -5.782759,4.38273 0,-0.20585 3.161878,-3.66536 7.026396,-7.687797 l 7.026396,-7.313519 0.253245,-2.995912 c 0.375988,-4.447909 0.307193,-8.730531 -0.154088,-9.592445 -0.538666,-1.006503 -1.641304,-0.960401 -3.863952,0.161561 -2.569258,1.296926 -6.91489,4.4018 -8.051636,5.752744 -0.555336,0.65998 -1.246644,2.347087 -1.646751,4.018816 -2.871026,11.995752 -4.333085,16.386002 -5.17617,15.542912 -0.152273,-0.15227 0.555989,-3.77171 1.573915,-8.043207 1.017926,-4.27149 1.846587,-8.164762 1.841468,-8.651711 -0.01358,-1.291987 -0.826963,-1.122379 -4.544399,0.947601 l -3.29178,1.832967 -1.059041,3.452397 c -2.505378,8.167353 -3.558813,11.130123 -4.010984,11.280853 -0.687954,0.22931 -0.602357,-0.71972 0.505394,-5.60344 1.536931,-6.775833 1.448477,-6.953354 -2.474125,-4.965295 -3.041541,1.541514 -3.854144,2.52218 -5.167545,6.236285 -1.277352,3.61216 -1.49398,4.034 -2.071567,4.034 -0.277902,0 -0.325134,-0.84953 -0.142204,-2.55771 0.255174,-2.382782 0.220358,-2.55771 -0.50907,-2.55771 -0.430637,0 -1.905578,0.53108 -3.277647,1.18017 -1.372069,0.6491 -2.794097,1.18032 -3.160062,1.18048 -1.504375,7.9e-4 -0.965848,-0.85885 1.836506,-2.931288 1.628316,-1.204194 2.960575,-2.34835 2.960575,-2.542566 0,-0.194217 -1.001219,-0.918172 -2.224931,-1.608794 -1.449443,-0.818015 -2.056908,-1.359514 -1.742862,-1.553605 0.479256,-0.296199 1.204114,-0.198534 5.758653,0.775891 l 2.381102,0.509426 2.800517,-1.471633 c 3.040645,-1.597811 4.405201,-2.792381 3.81964,-3.343816 -0.200487,-0.188802 -2.48939,-0.999444 -5.086452,-1.801424 -5.08127,-1.569114 -6.129126,-2.093622 -5.210104,-2.607934 0.309523,-0.173217 3.233988,0.366945 6.763776,1.249301 3.420166,0.854952 6.753109,1.554459 7.40654,1.554459 0.653432,0 2.454915,-0.609334 4.003297,-1.354076 4.392277,-2.1126 4.877993,-4.032014 1.254819,-4.958693 -7.289476,-1.864395 -12.141062,-3.39955 -13.078715,-4.138414 -0.679672,-0.535577 -0.570903,-0.564385 1.221352,-0.3235 1.082109,0.14544 4.180876,0.925251 6.886149,1.73291 2.705273,0.807658 6.29174,1.788439 7.969926,2.179509 l 3.051248,0.71104 4.491056,-2.23465 c 4.617121,-2.297376 6.916942,-3.889399 6.916942,-4.788159 0,-0.586098 -6.38099,-5.067077 -8.441732,-5.928113 -1.905401,-0.796125 -4.662597,-0.714936 -8.317202,0.244907 -13.096273,3.439604 -14.720605,3.767345 -14.720605,2.970177 0,-0.684629 1.673975,-1.256002 9.443861,-3.22345 3.138117,-0.794618 6.026289,-1.612759 6.418161,-1.818093 1.311411,-0.687155 0.596089,-1.910123 -2.052013,-3.508272 -3.701898,-2.234127 -4.353089,-2.267377 -11.835335,-0.604344 -6.836166,1.51943 -7.877088,1.660345 -7.877088,1.066345 0,-0.417788 2.754333,-1.487199 7.180463,-2.787926 1.676825,-0.492777 3.235207,-1.120597 3.463072,-1.395158 0.563246,-0.678671 -0.659196,-1.774994 -3.78802,-3.397213 l -2.461583,-1.27627 -2.885581,0.507384 c -1.587069,0.279061 -3.48483,0.610264 -4.217246,0.736008 -1.930204,0.331382 -1.445925,-0.6475 0.869115,-1.756763 1.011879,-0.484846 1.83978,-1.140361 1.83978,-1.456699 0,-0.316339 -0.841094,-1.141449 -1.869097,-1.833579 -2.49352,-1.678827 -3.639822,-2.74115 -3.639822,-3.373164 0,-0.807098 0.766818,-0.636245 3.914261,0.872126 1.599577,0.766577 3.151207,1.300573 3.448065,1.186657 0.390577,-0.149878 0.508109,-0.834124 0.425278,-2.475885 -0.06296,-1.247821 0.06261,-2.357302 0.279028,-2.465513 0.216422,-0.108211 0.840424,1.131296 1.386672,2.754459 1.845516,5.483908 1.752094,5.356987 5.221088,7.093273 2.121436,1.061812 3.298724,1.455123 3.563384,1.190463 0.264661,-0.264661 0.09057,-1.795865 -0.526942,-4.63461 -0.507201,-2.331652 -0.989365,-4.947657 -1.071474,-5.813344 l -0.149289,-1.573977 0.753573,0.865035 c 0.414465,0.47577 1.504785,3.574537 2.422934,6.886149 0.918148,3.311613 1.820471,6.307521 2.005162,6.657575 0.184691,0.350053 1.984283,1.633828 3.999094,2.852834 3.373123,2.040814 4.628222,2.579693 4.628222,1.987134 0,-0.126084 -0.778896,-3.623263 -1.73088,-7.771513 -2.1352,-9.304093 -2.277896,-10.099984 -1.810836,-10.099984 0.710136,0 1.480159,2.201085 3.969856,11.347692 2.39561,8.800948 2.54939,9.208742 3.691882,9.790126 0.655683,0.333659 2.785802,1.547396 4.733598,2.69719 4.037475,2.383347 5.486168,2.881688 5.823286,2.003177 0.123357,-0.321461 0.261568,-3.27593 0.307138,-6.565483 l 0.08286,-5.981006 -7.139957,-7.490683 c -3.926976,-4.119876 -7.139956,-7.641725 -7.139956,-7.826331 0,-0.824109 1.053311,-0.06455 5.400575,3.894416 8.018751,7.302522 8.058753,7.334679 8.382626,6.738365 0.161553,-0.297457 0.366111,-2.265697 0.454569,-4.373866 l 0.160833,-3.833035 -5.231829,-5.528627 c -4.750141,-5.01961 -5.951622,-6.676762 -4.840835,-6.676762 0.215048,0 1.826699,1.283775 3.581449,2.852833 3.859478,3.451064 5.490583,4.658156 5.928613,4.38744 0.181385,-0.112103 0.329791,-1.931541 0.329791,-4.043198 l 0,-3.839375 -2.557713,-2.839834 c -3.515485,-3.903252 -3.388996,-4.995592 0.266715,-2.303304 1.664933,1.226157 2.137941,0.721075 2.417066,-2.580977 0.136164,-1.610852 0.359524,-3.220552 0.496345,-3.577111 0.647979,-1.688606 1.738552,0.249655 1.738552,3.089906 0,1.967518 0.566986,3.738195 1.196998,3.738195 0.236219,0 0.99316,-0.416557 1.68209,-0.925683 3.123533,-2.308318 3.06665,-1.227789 -0.124628,2.36728 l -2.360965,2.659699 0,4.24526 c 0,2.453808 0.159617,4.245259 0.378254,4.245259 0.20804,0 2.283467,-1.682188 4.612059,-3.738195 2.328593,-2.056007 4.371784,-3.738195 4.540424,-3.738195 1.105203,0 -0.325853,1.948813 -4.612059,6.280693 l -4.918678,4.971092 0,4.604957 c 0,3.639867 0.113137,4.604958 0.539834,4.604958 0.296911,0 3.235023,-2.479014 6.52914,-5.508919 3.294117,-3.029906 6.254237,-5.50892 6.578039,-5.50892 0.765527,0 -0.0039,0.906336 -7.061435,8.317716 -3.07825,3.232594 -5.900403,6.446321 -6.271452,7.141616 -0.536022,1.004435 -0.678022,2.328792 -0.691125,6.445788 -0.0179,5.62596 0.121456,6.426465 1.118814,6.426465 0.980631,0 6.006347,-2.497822 8.683107,-4.315577 2.65064,-1.800012 2.170743,-0.684377 5.679669,-13.203811 2.102388,-7.501072 2.44317,-8.451231 3.031082,-8.451231 0.631983,0 0.200068,2.551971 -1.644129,9.714343 -0.84632,3.286881 -1.538763,6.341379 -1.538763,6.787774 0,1.165329 1.23301,1.042469 3.879861,-0.386596 4.234875,-2.286459 4.259228,-2.323161 6.417221,-9.670778 2.00352,-6.821697 3.08846,-9.090866 3.07464,-6.43069 -0.004,0.749747 -0.44339,3.222437 -0.97665,5.494866 -1.47239,6.274337 -1.44296,6.326678 2.41938,4.301744 3.49671,-1.833248 4.3285,-2.824108 5.44584,-6.487288 0.5406,-1.772354 1.27876,-3.466508 1.64035,-3.764786 0.60649,-0.500301 0.63844,-0.33754 0.41228,2.100457 -0.1405,1.514641 -0.0872,2.740403 0.12488,2.871471 0.20351,0.125779 1.48007,-0.242881 2.83678,-0.819245 1.35672,-0.576364 3.04421,-1.13557 3.74999,-1.242681 1.92283,-0.291817 1.32492,0.65226 -1.90617,3.009741 -1.49697,1.092223 -2.72176,2.146177 -2.72176,2.342119 0,0.195942 0.78289,0.72426 1.73975,1.174037 1.76639,0.8303 2.4662,1.490017 2.03644,1.919771 -0.13065,0.130656 -1.88408,-0.08619 -3.8965,-0.481869 -2.01242,-0.395684 -4.10031,-0.60865 -4.63975,-0.473258 -1.50149,0.37685 -5.86428,3.329469 -5.86428,3.968787 0,0.588348 0.96081,0.993465 6.86155,2.893078 3.42453,1.102453 4.78837,2.069677 2.91022,2.063905 -0.50499,-0.0016 -3.4857,-0.620037 -6.62382,-1.374409 -3.13812,-0.754371 -6.25478,-1.372854 -6.92592,-1.374408 -1.999081,-0.0046 -7.633367,3.324318 -7.633367,4.510073 0,0.570882 3.402741,1.80037 9.837357,3.554465 5.66172,1.543403 6.29591,1.784221 6.29591,2.390753 0,0.30785 -0.30988,0.559336 -0.68862,0.558864 -0.37874,-3.93e-4 -5.01607,-1.140578 -10.30518,-2.533563 l -9.61657,-2.532706 -4.155728,2.38077 c -4.996774,2.862587 -6.713444,4.108988 -6.713444,4.874342 0,0.664274 1.61058,1.824417 6.295002,4.534443 4.66622,2.699496 4.410307,2.717621 19.65484,-1.391876 3.94374,-1.063123 5.5297,-1.241647 5.5297,-0.62246 0,0.672403 -1.42781,1.178094 -7.27853,2.577879 -8.516993,2.037686 -10.046816,2.848028 -8.357955,4.427168 1.66332,1.555262 5.541178,3.63314 6.780375,3.63314 0.67336,0 3.7483,-0.619753 6.83319,-1.37723 5.65799,-1.389286 7.92533,-1.679697 7.92533,-1.015116 0,0.199163 -2.25767,1.101701 -5.01705,2.00564 -2.75938,0.903939 -5.18293,1.801078 -5.38566,1.993638 -0.56569,0.537313 1.11701,2.092929 3.82539,3.536482 l 2.4046,1.281639 3.16847,-0.65664 c 5.58968,-1.158411 6.65511,-0.74878 2.94387,1.131847 -1.06679,0.540586 -1.93962,1.155 -1.93962,1.365366 0,0.210366 1.23951,1.284023 2.75446,2.385905 4.10735,2.987432 3.48775,4.292882 -0.92091,1.940282 -1.2167,-0.64926 -2.56966,-1.18048 -3.0066,-1.18048 -0.71645,0 -0.79442,0.254248 -0.79442,2.5905 0,3.65904 -0.68491,3.14393 -2.36097,-1.77564 l -1.37723,-4.042453 -2.9512,-1.530697 c -2.9692,-1.54003 -4.32844,-1.891959 -4.32844,-1.120695 0,0.229305 0.44268,2.377972 0.98374,4.774813 2.04633,9.065152 0.80448,9.302932 -1.77248,0.339384 -1.76832,-6.150826 -2.562851,-8.009642 -3.99443,-9.344952 -1.223456,-1.141185 -5.331855,-3.004215 -6.032267,-2.735443 -0.695029,0.266707 -0.588923,0.941605 1.56678,9.965592 0.921194,3.856201 1.596033,7.146971 1.499646,7.312821 -0.298335,0.51332 -0.963108,-0.14091 -1.535717,-1.51135 -0.301157,-0.72078 -1.524188,-4.886302 -2.717849,-9.256736 -1.193661,-4.370434 -2.521641,-8.514739 -2.951073,-9.209571 -0.476309,-0.770682 -1.740866,-1.766703 -3.24279,-2.554159 -1.354104,-0.709951 -3.459066,-1.886235 -4.677698,-2.613959 -2.457187,-1.467344 -3.289065,-1.62728 -3.644623,-0.700707 -0.131368,0.342332 -0.238847,3.315492 -0.238847,6.607016 l 0,5.984595 6.130247,6.476663 c 7.237626,7.646618 8.733306,9.427878 7.916376,9.427878 -0.318341,0 -2.325283,-1.63098 -4.459875,-3.6244 -2.134596,-1.99341 -4.886101,-4.560965 -6.11446,-5.705667 -1.228359,-1.144698 -2.423598,-2.08127 -2.656086,-2.08127 -0.277488,0 -0.422707,1.601243 -0.422707,4.660947 0,4.26922 0.07088,4.72394 0.843321,5.41054 1.628739,1.44773 8.994034,9.65273 8.994034,10.01942 0,0.78013 -0.769257,0.26122 -4.700284,-3.17065 -2.231097,-1.9478 -4.299661,-3.54145 -4.596804,-3.54145 -0.423533,0 -0.540267,0.88778 -0.540267,4.10879 l 0,4.10879 2.004786,2.28549 c 1.899991,2.16602 3.392684,4.44971 2.908473,4.44971 -0.122306,0 -1.130694,-0.6117 -2.240863,-1.35933 -1.110169,-0.74763 -2.144921,-1.28119 -2.299454,-1.18568 -0.154529,0.0955 -0.399558,1.19415 -0.544506,2.44143 -0.492131,4.2348 -0.662865,4.82551 -1.394721,4.82551 -0.493618,0 -0.761556,-0.42258 -0.935611,-1.4756 z"
     id="path4137"
     inkscape:connector-curvature="0" />
</svg>
